<svg width="1728" height="105" viewBox="0 0 1728 105" fill="none" xmlns="http://www.w3.org/2000/svg">
<rect width="1728" height="105" fill="#4F4CFF"/>
<circle cx="691.208" cy="52.208" r="22.208" fill="#4F4CFF" stroke="#F4FF72" stroke-width="4"/>
<path d="M690.559 40.6299L705.294 51.8568L690.559 63.0837" stroke="#F4FF72" stroke-width="4"/>
<line x1="675.823" y1="51.2607" x2="705.294" y2="51.2607" stroke="#F4FF72" stroke-width="4"/>
<path d="M990.17 52.6523L999.35 48.1992V50.3281L992.65 53.375V53.4922L999.35 56.5391V58.6484L990.17 54.2148V52.6523ZM1007.06 47.6133C1007.06 48.6745 1007.25 49.7161 1007.62 50.7383C1007.99 51.7539 1008.52 52.6556 1009.2 53.4434C1009.88 54.2311 1010.65 54.8203 1011.53 55.2109L1010.4 56.6953C1009.42 56.2005 1008.57 55.4876 1007.83 54.5566C1007.1 53.6191 1006.53 52.5449 1006.14 51.334C1005.75 52.6165 1005.18 53.7591 1004.43 54.7617C1003.69 55.7578 1002.82 56.513 1001.83 57.0273L1000.65 55.5234C1001.54 55.1003 1002.32 54.4753 1003.01 53.6484C1003.7 52.8151 1004.23 51.8711 1004.61 50.8164C1004.99 49.7552 1005.19 48.6875 1005.19 47.6133V44.625H1007.06V47.6133ZM1009.6 48.9805H1013.51V43.1602H1015.34V60.6992H1013.51V50.4844H1009.6V48.9805ZM1030.79 47.2617H1033.35V48.8242H1030.79V52.8281H1028.93V43.1797H1030.79V47.2617ZM1017.74 44H1025.71V48.8438H1019.62V50.9531C1021.3 50.9401 1022.71 50.8945 1023.85 50.8164C1024.99 50.7383 1026.16 50.5885 1027.35 50.3672L1027.54 51.8906C1026.26 52.112 1024.99 52.265 1023.74 52.3496C1022.49 52.4277 1020.96 52.4701 1019.17 52.4766H1017.76V47.418H1023.89V45.5234H1017.74V44ZM1019.6 53.5703H1021.43V55.543H1028.93V53.5703H1030.79V60.4453H1019.6V53.5703ZM1028.93 58.9414V57.0078H1021.43V58.9414H1028.93ZM1048.38 60.6602H1046.6V43.1602H1048.38V60.6602ZM1033.52 50.7188C1033.52 49.4688 1033.67 48.3815 1033.98 47.457C1034.29 46.526 1034.73 45.8132 1035.29 45.3184C1035.87 44.8171 1036.53 44.5664 1037.29 44.5664C1037.99 44.5664 1038.61 44.778 1039.15 45.2012C1039.7 45.6243 1040.14 46.2363 1040.46 47.0371C1040.79 47.8314 1040.99 48.7721 1041.07 49.8594H1043.05V43.4922H1044.83V59.8008H1043.05V51.3633H1041.08C1041.02 52.4961 1040.84 53.4792 1040.51 54.3125C1040.18 55.1393 1039.74 55.7773 1039.19 56.2266C1038.64 56.6693 1038 56.8906 1037.29 56.8906C1036.53 56.8906 1035.87 56.6432 1035.29 56.1484C1034.73 55.6471 1034.29 54.931 1033.98 54C1033.67 53.0625 1033.52 51.9688 1033.52 50.7188ZM1035.24 50.7188C1035.24 51.6367 1035.32 52.4277 1035.48 53.0918C1035.65 53.7559 1035.89 54.2637 1036.19 54.6152C1036.51 54.9603 1036.87 55.1328 1037.29 55.1328C1037.72 55.1328 1038.09 54.9603 1038.4 54.6152C1038.71 54.2637 1038.95 53.7559 1039.12 53.0918C1039.29 52.4277 1039.38 51.6367 1039.38 50.7188C1039.38 49.7943 1039.29 49.0033 1039.12 48.3457C1038.95 47.6816 1038.71 47.1771 1038.4 46.832C1038.09 46.4805 1037.72 46.3047 1037.29 46.3047C1036.87 46.3047 1036.51 46.4805 1036.19 46.832C1035.89 47.1771 1035.65 47.6816 1035.48 48.3457C1035.32 49.0098 1035.24 49.8008 1035.24 50.7188ZM1068.1 60.6992H1066.24V50.9727H1062.63V49.4492H1066.24V43.1602H1068.1V60.6992ZM1053.29 55.8164C1054.17 55.3997 1054.96 54.7845 1055.65 53.9707C1056.35 53.1504 1056.89 52.2259 1057.28 51.1973C1057.67 50.1621 1057.87 49.1237 1057.87 48.082V46.4414H1054V44.918H1063.63V46.4414H1059.74V48.082C1059.74 49.0651 1059.93 50.0482 1060.32 51.0312C1060.71 52.0143 1061.25 52.8965 1061.94 53.6777C1062.63 54.4525 1063.41 55.0352 1064.29 55.4258L1063.18 56.9102C1062.19 56.4284 1061.31 55.7122 1060.55 54.7617C1059.8 53.8112 1059.22 52.7272 1058.82 51.5098C1058.43 52.7988 1057.84 53.9544 1057.07 54.9766C1056.31 55.9922 1055.42 56.7539 1054.43 57.2617L1053.29 55.8164ZM1072.65 51.4414C1074.03 51.4284 1075.26 51.3828 1076.32 51.3047C1077.38 51.2201 1078.45 51.0768 1079.54 50.875L1079.78 52.3984C1078.62 52.6263 1077.48 52.7858 1076.34 52.877C1075.2 52.9616 1073.89 53.0039 1072.42 53.0039H1072.12H1070.81V44.1953H1072.65V51.4414ZM1072.49 54.5078H1084.37V60.6602H1082.51V56.0117H1072.49V54.5078ZM1077.74 48.3359H1082.51V46.6172H1077.74V45.1914H1082.51V43.1602H1084.37V53.7266H1082.51V49.7617H1077.74V48.3359ZM1094.03 43.4531C1095.34 43.4531 1096.47 43.5671 1097.4 43.7949C1098.33 44.0228 1099.04 44.3646 1099.54 44.8203C1100.03 45.2695 1100.28 45.8164 1100.28 46.4609C1100.28 47.112 1100.03 47.6654 1099.54 48.1211C1099.04 48.5703 1098.33 48.9121 1097.4 49.1465C1096.47 49.3743 1095.34 49.4883 1094.03 49.4883C1092.71 49.4883 1091.59 49.3743 1090.65 49.1465C1089.72 48.9121 1089.01 48.5703 1088.51 48.1211C1088.02 47.6654 1087.78 47.112 1087.78 46.4609C1087.78 45.8164 1088.02 45.2695 1088.51 44.8203C1089.01 44.3646 1089.72 44.0228 1090.65 43.7949C1091.59 43.5671 1092.71 43.4531 1094.03 43.4531ZM1086.06 50.5625H1102.02V52.0469H1086.06V50.5625ZM1087.97 53.3945H1100.01V57.4961H1089.81V59.0586H1100.49V60.4844H1087.99V56.1484H1098.17V54.7812H1087.97V53.3945ZM1089.71 46.4609C1089.71 47.0013 1090.07 47.4115 1090.82 47.6914C1091.56 47.9648 1092.63 48.1016 1094.03 48.1016C1095.44 48.1016 1096.52 47.9648 1097.26 47.6914C1098 47.4115 1098.37 47.0013 1098.37 46.4609C1098.37 45.9401 1098 45.5365 1097.24 45.25C1096.49 44.9635 1095.42 44.8203 1094.03 44.8203C1092.64 44.8203 1091.57 44.9635 1090.83 45.25C1090.08 45.5365 1089.71 45.9401 1089.71 46.4609ZM1109.1 49.5078C1110.43 49.4948 1111.69 49.4395 1112.86 49.3418C1114.03 49.2441 1115.22 49.0846 1116.42 48.8633L1116.66 50.3672C1115.34 50.6211 1114.04 50.8001 1112.76 50.9043C1111.49 51.0085 1110.12 51.0638 1108.63 51.0703H1107.22V44H1109.1V49.5078ZM1108.69 53.3555H1114.02V51.6953H1115.88V53.3555H1121.19V54.8008H1108.69V53.3555ZM1109.96 58.043C1109.96 57.4961 1110.16 57.0306 1110.55 56.6465C1110.96 56.2559 1111.53 55.9596 1112.27 55.7578C1113.02 55.556 1113.9 55.4518 1114.92 55.4453C1115.96 55.4518 1116.84 55.556 1117.59 55.7578C1118.33 55.9596 1118.91 56.2559 1119.3 56.6465C1119.71 57.0306 1119.91 57.4961 1119.92 58.043C1119.91 58.5898 1119.71 59.0553 1119.3 59.4395C1118.91 59.8301 1118.33 60.123 1117.59 60.3184C1116.84 60.5202 1115.95 60.6211 1114.92 60.6211C1113.9 60.6276 1113.03 60.5299 1112.28 60.3281C1111.54 60.1263 1110.97 59.8301 1110.56 59.4395C1110.16 59.0553 1109.96 58.5898 1109.96 58.043ZM1111.79 58.043C1111.79 58.4401 1112.07 58.7493 1112.61 58.9707C1113.15 59.1855 1113.9 59.293 1114.86 59.293C1115.87 59.293 1116.65 59.1855 1117.21 58.9707C1117.76 58.7559 1118.04 58.4466 1118.04 58.043C1118.04 57.6458 1117.78 57.3431 1117.24 57.1348C1116.71 56.9199 1115.96 56.8125 1114.99 56.8125C1113.98 56.8125 1113.19 56.9199 1112.63 57.1348C1112.07 57.3431 1111.79 57.6458 1111.79 58.043ZM1114.1 45.6992H1118.96V43.1602H1120.82V52.418H1118.96V47.1836H1114.1V45.6992ZM1127.26 44.4688C1128.05 44.4688 1128.76 44.6836 1129.39 45.1133C1130.02 45.543 1130.53 46.1517 1130.92 46.9395C1131.32 47.7272 1131.56 48.6549 1131.65 49.7227H1135.27V43.1602H1137.1V60.6992H1135.27V51.2266H1131.67C1131.61 52.3529 1131.38 53.3327 1130.99 54.166C1130.6 54.9993 1130.08 55.6406 1129.44 56.0898C1128.79 56.5326 1128.07 56.7539 1127.26 56.7539C1126.39 56.7539 1125.62 56.5033 1124.95 56.002C1124.27 55.5007 1123.75 54.7845 1123.37 53.8535C1123 52.9225 1122.82 51.8385 1122.83 50.6016C1122.82 49.3776 1123 48.3034 1123.37 47.3789C1123.75 46.4479 1124.27 45.7318 1124.95 45.2305C1125.62 44.7227 1126.39 44.4688 1127.26 44.4688ZM1124.58 50.6016C1124.58 51.513 1124.69 52.3073 1124.92 52.9844C1125.14 53.6615 1125.46 54.1823 1125.86 54.5469C1126.27 54.9115 1126.73 55.0938 1127.26 55.0938C1127.79 55.0938 1128.25 54.9115 1128.66 54.5469C1129.06 54.1823 1129.37 53.6615 1129.59 52.9844C1129.82 52.3073 1129.94 51.513 1129.94 50.6016C1129.94 49.7031 1129.82 48.9186 1129.59 48.248C1129.37 47.571 1129.05 47.0501 1128.65 46.6855C1128.25 46.3145 1127.79 46.1289 1127.26 46.1289C1126.73 46.1289 1126.27 46.3145 1125.86 46.6855C1125.47 47.0501 1125.15 47.571 1124.93 48.248C1124.7 48.9186 1124.58 49.7031 1124.58 50.6016ZM1156.71 51.0703H1144.83V44.1562H1156.49V45.6602H1146.71V49.6055H1156.71V51.0703ZM1142.66 53.1992H1158.68V54.7031H1151.53V60.6211H1149.71V54.7031H1142.66V53.1992ZM1165.18 54.7031C1165.18 55.4974 1165.38 56.2591 1165.77 56.9883C1166.17 57.7109 1166.75 58.3066 1167.51 58.7754C1168.03 58.4434 1168.46 58.0462 1168.81 57.584C1169.17 57.1217 1169.44 56.64 1169.61 56.1387C1169.79 55.6374 1169.88 55.1589 1169.88 54.7031V53.7656H1171.7V54.7031C1171.7 55.3151 1171.83 55.9076 1172.1 56.4805C1172.37 57.0534 1172.77 57.5645 1173.29 58.0137C1173.83 58.4629 1174.47 58.8047 1175.22 59.0391L1174.26 60.4258C1173.42 60.1263 1172.7 59.6966 1172.11 59.1367C1171.53 58.5833 1171.08 57.9355 1170.76 57.1934C1170.46 57.9421 1170.04 58.6126 1169.5 59.2051C1168.97 59.804 1168.32 60.263 1167.54 60.582C1166.74 60.276 1166.07 59.8333 1165.52 59.2539C1164.97 58.681 1164.56 58.0202 1164.27 57.2715C1163.95 57.9811 1163.5 58.6094 1162.91 59.1562C1162.33 59.7031 1161.64 60.1263 1160.84 60.4258L1159.94 59.0391C1160.67 58.7852 1161.28 58.4303 1161.8 57.9746C1162.32 57.5124 1162.71 56.998 1162.98 56.4316C1163.25 55.8587 1163.39 55.2826 1163.4 54.7031V53.7656H1165.18V54.7031ZM1159.24 48.2578C1159.24 47.4635 1159.44 46.7539 1159.83 46.1289C1160.22 45.4974 1160.77 45.0059 1161.46 44.6543C1162.15 44.2962 1162.94 44.1172 1163.81 44.1172C1164.56 44.1172 1165.25 44.2572 1165.87 44.5371C1166.5 44.8105 1167.03 45.2012 1167.44 45.709C1167.87 46.2103 1168.14 46.7865 1168.27 47.4375H1171.7V43.1602H1173.56V53.082H1171.7V48.9609H1168.3C1168.19 49.6315 1167.92 50.2272 1167.49 50.748C1167.08 51.2624 1166.55 51.6628 1165.91 51.9492C1165.27 52.2357 1164.57 52.3789 1163.81 52.3789C1162.94 52.3789 1162.15 52.2031 1161.46 51.8516C1160.77 51.5 1160.22 51.0117 1159.83 50.3867C1159.44 49.7617 1159.24 49.0521 1159.24 48.2578ZM1161.02 48.2578C1161.02 48.7526 1161.13 49.1986 1161.37 49.5957C1161.61 49.9863 1161.94 50.2923 1162.37 50.5137C1162.79 50.7285 1163.28 50.8359 1163.81 50.8359C1164.33 50.8359 1164.8 50.7285 1165.22 50.5137C1165.64 50.2923 1165.97 49.9863 1166.21 49.5957C1166.46 49.1986 1166.58 48.7526 1166.58 48.2578C1166.58 47.75 1166.46 47.3008 1166.22 46.9102C1165.98 46.5195 1165.65 46.2168 1165.23 46.002C1164.8 45.7871 1164.33 45.6797 1163.81 45.6797C1163.28 45.6797 1162.79 45.7871 1162.37 46.002C1161.94 46.2168 1161.61 46.5195 1161.37 46.9102C1161.13 47.3008 1161.02 47.75 1161.02 48.2578ZM1188.88 49.9375H1191.7V51.4609H1188.88V60.6992H1187.03V43.1602H1188.88V49.9375ZM1175.99 44.8398H1184.18V46.3438H1177.85V54.8008C1179.4 54.7943 1180.76 54.7487 1181.93 54.6641C1183.1 54.5794 1184.29 54.4297 1185.49 54.2148L1185.72 55.7773C1184.48 55.9987 1183.27 56.1484 1182.08 56.2266C1180.89 56.3047 1179.48 56.3438 1177.85 56.3438H1177.4H1175.99V44.8398ZM1192.67 58.6484V56.5391L1199.37 53.4824V53.3848L1192.67 50.3281V48.1992L1201.85 52.6523V54.2148L1192.67 58.6484Z" fill="#F4FF72"/>
</svg>
