<svg width="1164" height="1297" viewBox="0 0 1164 1297" fill="none" xmlns="http://www.w3.org/2000/svg">
<path d="M3 681H1161V797C1161 1071.49 938.485 1294 664 1294H500C225.514 1294 3 1071.49 3 797V681Z" fill="#F7FF99" stroke="black" stroke-width="6"/>
<path d="M1161 678.401C1161 697.352 1145.98 716.225 1116.71 733.99C1087.62 751.646 1045.32 767.653 992.79 781.137C887.776 808.095 742.539 824.802 582 824.802C421.461 824.802 276.224 808.095 171.21 781.137C118.68 767.653 76.3844 751.646 47.2929 733.99C18.0225 716.225 3 697.352 3 678.401C3 659.449 18.0225 640.577 47.2929 622.812C76.3844 605.156 118.68 589.149 171.21 575.664C276.224 548.707 421.461 532 582 532C742.539 532 887.776 548.707 992.79 575.664C1045.32 589.149 1087.62 605.156 1116.71 622.812C1145.98 640.577 1161 659.449 1161 678.401Z" fill="#F4FF72" stroke="black" stroke-width="6"/>
<rect x="634" width="45" height="545" fill="url(#paint0_linear_282_389)"/>
<rect x="719" width="45" height="552" fill="url(#paint1_linear_282_389)"/>
<rect x="810" width="45" height="563" fill="url(#paint2_linear_282_389)"/>
<path d="M152 481.38C155.96 481.38 159.2 484.62 159.2 491.13C159.2 497.55 156.05 500.55 152 500.55C148.7 500.55 144.98 497.58 144.98 491.13C144.98 484.59 148.25 481.38 152 481.38ZM152.03 485.04C149.9 485.04 148.85 487.95 148.85 491.13C148.85 494.43 150.02 497.04 152 497.07C154.19 497.1 155.18 494.43 155.21 491.13C155.24 487.92 154.25 485.04 152.03 485.04ZM168.98 505.38L164.99 505.44L165.08 493.14L160.25 493.17V489.57L165.08 489.66L165.05 478.5C165.05 478.5 168.35 478.59 168.8 478.65C169.61 478.77 168.95 479.82 168.95 480.24C168.95 480.24 168.92 485.43 168.92 491.22C168.92 496.74 168.98 505.35 168.98 505.38ZM152.27 527.54C152.3 527.54 154.22 527.51 158.36 527.51C163.85 527.51 168.56 527.45 168.59 527.45V531.08C168.56 531.08 161.24 531.05 158.18 531.05C154.46 531.05 147.95 531.11 147.92 531.11V519.62C147.95 519.59 151.4 519.83 151.85 519.86C153.11 519.92 152.27 520.76 152.27 521.06V527.54ZM171.14 536.48V540.11C171.14 540.11 162.32 540.08 158.03 540.08C150.59 540.08 144.89 540.11 144.86 540.11V536.48C144.89 536.48 150.77 536.54 158.15 536.54C165.44 536.54 171.11 536.48 171.14 536.48Z" fill="black"/>
<rect x="242" width="45" height="576" fill="url(#paint3_linear_282_389)"/>
<path d="M254.92 417.11V408.98C254.95 408.95 257.98 409.16 258.43 409.16C259.6 409.16 258.91 410.3 258.91 410.57V413.78C258.94 413.78 261.46 413.75 265.63 413.75C269.77 413.75 275.14 413.69 275.17 413.69V417.14C275.14 417.14 268.87 417.08 264.85 417.08C260.98 417.08 254.95 417.11 254.92 417.11ZM254.83 424.43C254.89 424.43 259.24 424.52 264.64 424.49C272.14 424.46 275.08 424.43 275.08 424.43V427.79L267.04 427.73C267.07 427.79 267.37 429.02 269.68 430.31C272.95 432.14 277.06 432.29 277.09 432.29C277.09 432.29 276.19 433.19 275.71 433.85C275.2 434.54 274.66 435.38 274.63 435.41C274.57 435.41 271.15 435.14 268.15 433.28C266.29 432.14 265.3 430.55 265.27 430.49C265.24 430.52 264.1 432.35 261.67 433.67C259 435.11 255.97 435.47 255.94 435.47C255.91 435.44 255.13 434.42 254.74 433.91C254.26 433.28 253.3 432.38 253.3 432.38C253.33 432.38 258.1 432.17 260.83 430.4C262.72 429.17 263.02 427.76 263.05 427.73L254.83 427.76V424.43ZM278.14 418.79V422.45C278.14 422.45 273.07 422.39 265.21 422.39C258.01 422.39 251.92 422.45 251.89 422.45V418.79C251.92 418.79 260.29 418.88 265.24 418.85C270.61 418.82 278.11 418.79 278.14 418.79ZM265.09 447.25C269.26 447.25 275.68 447.46 275.68 452.47C275.68 457.63 268.48 457.81 265.09 457.81C261.7 457.81 254.17 457.72 254.17 452.47C254.17 447.43 261.16 447.25 265.09 447.25ZM265.09 450.28C263.56 450.28 258.16 450.46 258.16 452.47C258.16 454.9 263.56 454.78 265.09 454.75C266.74 454.72 271.66 454.93 271.66 452.47C271.66 450.46 266.62 450.28 265.09 450.28ZM278.23 459.7V463.09C278.23 463.09 273.25 463.03 265.39 463.03C257.95 463.03 251.77 463.09 251.74 463.09V459.7C251.77 459.7 258.01 459.76 265.39 459.76C272.68 459.76 278.2 459.7 278.23 459.7ZM275.26 472.42C275.23 472.42 271.09 472.36 266.29 472.36C262 472.36 255.13 472.36 255.04 472.36V464.56C255.07 464.53 258.43 464.8 258.88 464.8C259.75 464.8 259.21 465.67 259.21 466L259.18 469.12C259.21 469.12 263.14 469.06 267.01 469.09C271.27 469.12 275.23 469.06 275.26 469.06V472.42ZM253 487.47C253.12 487.47 257.5 487.53 260.38 487.53C263.41 487.53 268.03 487.47 268.12 487.47V490.98L262.36 490.89C262.36 490.89 261.67 495 263.38 497.88C265.45 501.36 268.69 502.68 268.75 502.71C268.72 502.74 267.85 503.43 267.31 504.09C266.77 504.75 266.26 505.59 266.23 505.62C266.2 505.59 264.55 504.9 262.51 502.74C261.1 501.24 260.2 499.26 260.2 499.23C260.2 499.26 259.45 501.12 257.59 503.04C256 504.69 254.26 505.77 254.23 505.8C254.17 505.74 253.3 504.84 252.55 504.24C251.95 503.76 250.87 503.25 250.84 503.25C250.9 503.22 254.77 501.33 256.72 497.91C258.67 494.49 258.64 490.98 258.64 490.89L253 490.98V487.47ZM275.98 511.38L271.99 511.44L272.08 497.88L266.5 497.91V494.31L272.08 494.4L272.05 484.5C272.05 484.5 275.35 484.59 275.8 484.65C276.61 484.77 275.95 485.82 275.95 486.24C275.95 486.24 275.92 491.43 275.92 497.22C275.92 502.74 275.98 511.35 275.98 511.38ZM257.56 535.19C257.56 535.19 259.84 535.19 262.03 535.1C264.07 535.01 267.16 534.68 267.19 534.68L267.46 537.74C267.43 537.74 264.43 538.07 260.2 538.28C256.06 538.49 253.51 538.46 253.51 538.46V524.36C253.54 524.33 256.81 524.51 257.26 524.51C258.22 524.48 257.56 525.35 257.56 525.86V535.19ZM255.43 542.96V539.72C255.46 539.72 260.32 539.78 264.88 539.78C269.23 539.78 275.98 539.69 276.04 539.69L276.07 549.2L271.99 549.23L272.05 542.9C271.99 542.9 267.94 542.87 264.97 542.9C262.24 542.93 255.46 542.96 255.43 542.96ZM272.11 538.25L272.14 534.02L265.54 534.05V530.84L272.11 530.87V529.34L265.48 529.4V526.13L272.11 526.16L272.05 522.5C272.05 522.5 274.99 522.65 275.38 522.62C276.7 522.56 275.98 523.88 275.98 524.3C275.98 524.33 275.92 527.03 275.92 529.58C275.92 531.86 276.01 538.16 276.01 538.19L272.11 538.25ZM253.6 602.34C253.63 602.31 255.94 602.4 257.14 602.46C258.7 602.52 257.8 603.48 257.8 604.2L257.77 614.22C257.8 614.22 261.88 614.07 264.13 613.83C267.37 613.47 269.83 613.17 269.86 613.17L270.13 616.59C270.01 616.62 267.28 616.98 261.61 617.55C257.8 617.94 253.63 618 253.6 618V602.34ZM271.3 625.38C271.3 625.38 271.39 616.47 271.48 612C271.57 606.84 271.36 598.59 271.36 598.5C271.39 598.47 274.06 598.53 274.96 598.59C276.16 598.65 275.38 599.13 275.38 600.06L275.29 610.26L278.74 610.17V614.01L275.29 613.95L275.47 625.26L271.3 625.38ZM277.99 649.1V652.76C277.93 652.76 268.54 652.7 264.58 652.7C260.86 652.7 252.01 652.76 251.98 652.76V649.1C252.01 649.1 257.98 649.16 264.67 649.16C271.15 649.16 277.96 649.1 277.99 649.1ZM258.85 637.58C260.11 637.67 259.15 638.54 259.15 639.29V642.74C259.15 642.74 263.2 642.71 265.81 642.74C270.79 642.77 275.26 642.71 275.29 642.71V646.16C275.26 646.16 267.52 646.1 265.33 646.1C262.06 646.07 255.1 646.13 255.07 646.13V637.49C255.1 637.43 258.01 637.52 258.85 637.58ZM258.7 654.32C259.93 654.47 259 655.4 259 655.94V659.03C259 659.03 262.87 659 265.33 659.03C269.62 659.06 275.53 659 275.56 659V662.54C275.53 662.54 268.51 662.51 265.9 662.51C262.63 662.51 254.98 662.54 254.95 662.54V654.23C254.98 654.17 257.86 654.23 258.7 654.32Z" fill="black"/>
<path d="M367.28 88.03C368.75 88.06 374.09 88.06 374.09 91.33C374.09 94.81 368.72 94.81 367.28 94.81C365.96 94.81 360.17 94.81 360.17 91.33C360.17 88 365.81 88 367.28 88.03ZM367.25 90.25C366.59 90.25 363.92 89.98 363.92 91.27C363.92 92.56 366.59 92.41 367.28 92.41C367.88 92.41 370.34 92.56 370.34 91.33C370.34 90.04 367.88 90.25 367.25 90.25ZM364.67 100.09C366.02 100.27 365.18 101.02 365.18 101.47V103.36C365.18 103.36 371 103.33 373.64 103.36C378.92 103.39 382.22 103.33 382.25 103.33V106.54C382.22 106.54 378.92 106.54 374.06 106.51C369.74 106.48 361.16 106.54 361.13 106.54V99.88C361.16 99.85 364.04 100 364.67 100.09ZM357.56 95.89C357.65 95.89 363.98 95.98 367.88 95.89C371.27 95.8 376.55 95.47 376.58 95.47L376.88 98.26C376.85 98.26 371.96 98.41 368.33 98.59C365.03 98.74 359.93 98.92 359.87 98.92C359.15 98.95 358.28 99.73 358.04 98.74C357.8 97.69 357.53 95.92 357.56 95.89ZM377.99 80.5C378.02 80.47 380.66 80.56 381.44 80.62C382.88 80.74 381.86 81.58 381.86 82.24C381.89 82.36 381.8 89.47 381.83 91.69C381.89 97.21 381.89 100.48 381.89 100.51L377.96 100.6C377.96 100.57 378.05 94.66 378.02 90.7C377.99 86.71 377.99 80.53 377.99 80.5ZM358.61 84.46C358.67 84.46 364.04 84.52 367.49 84.52C370.67 84.52 375.68 84.46 375.68 84.46V87.16C375.62 87.16 370.76 87.16 367.61 87.16C364.1 87.16 358.61 87.16 358.61 87.16V84.46ZM363.35 81.04C363.38 81.04 365.84 81.1 367.46 81.1C369.11 81.1 370.85 81.04 370.94 81.04V83.56C370.94 83.56 368.87 83.5 367.55 83.5C365.9 83.5 363.38 83.56 363.35 83.56V81.04ZM368.3 163.34C368.33 163.31 370.97 163.37 371.75 163.43C372.92 163.52 372.32 164.24 372.29 164.84L372.2 167.78C372.23 167.78 375.35 167.87 377.36 167.78C379.7 167.69 384.08 167.72 384.08 167.72V171.17C384.02 171.17 375.14 171.05 369.89 171.05C364.49 171.05 358.01 171.11 357.98 171.11V167.69C358.01 167.69 360.26 167.72 362.18 167.78C364.61 167.84 368.33 167.78 368.36 167.78L368.3 163.34ZM360.95 157.31C360.95 157.31 366.71 157.49 370.4 157.49C374.78 157.49 381.56 157.31 381.65 157.31C381.65 157.37 381.59 159.2 381.32 161.51C381.02 164.03 380.63 165.74 380.6 165.83C380.6 165.83 379.4 166.1 378.59 166.04C377.87 165.98 376.76 166.13 376.73 166.13C376.73 166.1 377 164.54 377.15 163.52C377.3 162.41 377.45 160.7 377.45 160.7C377.45 160.7 372.83 160.64 369.83 160.73C366.38 160.82 360.95 160.91 360.95 160.91V157.31ZM371.45 173.09C373.04 173.09 381.83 173 381.83 177.89C381.83 183.08 373.19 182.99 371.45 183.02C369.89 183.05 360.71 183.2 360.71 177.89C360.71 172.97 369.92 173.09 371.45 173.09ZM371.45 176.09C370.34 176.09 364.85 175.85 364.85 177.86C364.85 179.99 370.43 179.87 371.45 179.87C372.56 179.87 377.81 179.72 377.81 177.86C377.81 175.88 372.56 176.09 371.45 176.09ZM359.21 197.62C359.24 197.62 363.08 197.74 365.57 197.74C368.6 197.74 373.28 197.62 373.31 197.62C373.31 197.62 373.25 204.07 370.19 208.93C366.59 214.63 361.07 216.55 361.04 216.55C361.01 216.52 360.2 215.32 359.6 214.69C359.03 214.12 358.01 213.37 357.98 213.34C358.04 213.31 362.75 212.26 365.87 208.24C368.42 204.94 368.93 201.49 368.93 201.43C368.9 201.43 366.11 201.43 364.31 201.43C362.33 201.43 359.21 201.55 359.21 201.55V197.62ZM378.05 221.32C378.05 221.32 378.14 211.9 378.2 207.43C378.23 204.37 378.05 194.59 378.05 194.5C378.08 194.47 380.6 194.5 381.65 194.59C382.79 194.68 382.04 195.37 382.04 196.03C382.04 196.03 381.89 204.55 381.98 207.73C382.04 210.01 382.16 221.23 382.16 221.23L378.05 221.32ZM372.56 246.99C372.56 246.99 370.13 246.96 370.13 246.99C369.53 250.17 368.18 253.5 364.25 253.47C360.5 253.44 358.4 250.53 358.43 244.86C358.46 238.71 360.44 235.71 364.25 235.68C368.24 235.65 369.98 239.52 370.16 243.78H372.56L372.53 233.49C372.53 233.49 375.41 233.58 375.92 233.61C376.67 233.64 376.19 234.3 376.19 234.9C376.19 234.9 376.19 241.05 376.19 246.84C376.19 252.03 376.25 257.73 376.25 257.76L372.53 257.82L372.56 246.99ZM366.65 244.89C366.65 242.13 366.14 239.13 364.28 239.13C362.42 239.13 361.76 242.4 361.82 244.89C361.88 247.17 362.78 250.23 364.28 250.2C366.08 250.17 366.65 247.2 366.65 244.89ZM382.58 259.05L378.8 259.11C378.8 259.08 378.86 250.62 378.86 245.64C378.86 238.59 378.83 232.56 378.83 232.5C378.83 232.5 381.68 232.56 382.25 232.59C383.15 232.62 382.55 233.61 382.55 234.03C382.55 234.06 382.52 242.97 382.52 245.04C382.52 250.5 382.58 259.05 382.58 259.05ZM377.27 324.07C377.27 324.07 377.33 320.74 377.33 316.72C377.33 311.35 377.3 308.53 377.3 308.5C377.33 308.47 380.45 308.65 381.02 308.68C381.98 308.74 381.35 309.88 381.35 310.18L381.32 315.7L384.56 315.67V319.48L381.41 319.45L381.44 324.01L377.27 324.07ZM361.97 325.09C361.97 325.09 367.61 325.12 371.21 325.15C375.17 325.18 381.35 325.12 381.38 325.12V335.23L377.24 335.29L377.27 334.57C377.27 334.57 374 334.54 371.69 334.54C369.2 334.54 365.93 334.57 365.9 334.57L365.93 335.29L361.94 335.32L361.97 325.09ZM377.33 328.36C377.33 328.36 374.12 328.33 371.51 328.33C369.08 328.33 365.96 328.36 365.96 328.36V331.45C365.96 331.45 369.35 331.48 371.6 331.48C373.82 331.48 377.3 331.45 377.33 331.45V328.36ZM359.51 310.51H373.1V314.05L363.47 314.02V319.33C363.47 319.33 366.95 319.3 369.17 319.18C371.66 319.03 375.38 318.76 375.41 318.76L375.65 322.09C375.59 322.09 371.36 322.36 367.82 322.54C364.37 322.72 359.54 322.78 359.51 322.78V310.51ZM359.3 348.75C359.36 348.75 363.71 348.87 366.2 348.87C368.63 348.87 373.67 348.78 373.67 348.78C373.67 348.78 373.76 351.18 372.65 353.91C369.92 360.57 360.47 362.85 360.44 362.85C360.41 362.79 359.69 361.83 359.09 361.14C358.49 360.45 357.68 359.73 357.56 359.64C357.59 359.64 361.61 359.16 364.88 357.18C368.54 354.96 369.35 352.2 369.38 352.17C369.38 352.17 366.11 352.17 364.43 352.2C362.54 352.23 359.33 352.29 359.3 352.29V348.75ZM382.19 364.17L378.17 364.26C378.17 364.23 378.29 360 378.29 355.02C378.29 351.75 378.23 346.68 378.23 346.62C378.26 346.59 381.02 346.71 381.59 346.71C382.85 346.74 382.1 347.61 382.1 347.97C382.1 348 382.01 353.79 382.01 355.86C382.01 359.1 382.19 364.17 382.19 364.17ZM382.64 369V372.96C382.61 372.96 375.86 372.84 371.9 372.87C367.61 372.9 361.58 372.87 361.49 372.87L361.52 363.9C361.55 363.87 364.85 363.99 365.3 363.99C366.53 363.99 365.84 365.07 365.84 365.34L365.78 369.12C365.81 369.12 367.94 369.09 371.81 369.12C375.14 369.15 382.61 369 382.64 369ZM377.24 437.26C377.24 437.26 377.3 433.81 377.3 429.67C377.3 425.74 377.27 422.53 377.27 422.5C377.3 422.47 380.51 422.59 381.08 422.59C381.77 422.59 381.29 423.67 381.29 424.06L381.23 429.43L384.59 429.4V433.12L381.23 433.09L381.29 437.23L377.24 437.26ZM369.56 424.42C369.56 424.42 371.78 424.42 373.19 424.54C373.91 424.6 373.37 425.32 373.37 425.77C373.37 425.83 373.43 428.62 373.4 430.66C373.37 433.12 373.4 436.33 373.4 436.33H359.78C359.78 436.33 359.81 432.73 359.81 430.3C359.81 427.96 359.84 424.39 359.84 424.39C359.84 424.39 362.03 424.51 363.44 424.51C364.22 424.51 363.71 425.29 363.71 425.56L363.68 427.3H369.62L369.56 424.42ZM369.62 430.39H363.65V433.15L369.62 433.18V430.39ZM361.94 438.19C361.94 438.19 365.09 438.4 365.6 438.37C366.62 438.34 365.93 439.18 365.93 439.33L365.9 440.47C365.9 440.47 369.02 440.5 371.69 440.5C373.88 440.5 377.27 440.47 377.3 440.47L377.27 438.13C377.3 438.1 380.54 438.28 380.96 438.28C381.89 438.28 381.26 439.15 381.26 439.45V449.11L377.24 449.17L377.27 448.57C377.24 448.57 373.85 448.57 371.66 448.57C369.44 448.57 365.93 448.6 365.93 448.6L365.96 449.2L361.91 449.26L361.94 438.19ZM365.9 443.5V445.6C365.9 445.6 368.69 445.63 371.51 445.63C374.45 445.63 377.3 445.6 377.33 445.6V443.56C377.3 443.56 373.79 443.5 371.51 443.5C369.32 443.5 365.84 443.5 365.9 443.5ZM372.56 474.99C372.56 474.99 370.13 474.96 370.13 474.99C369.53 478.17 368.18 481.5 364.25 481.47C360.5 481.44 358.4 478.53 358.43 472.86C358.46 466.71 360.44 463.71 364.25 463.68C368.24 463.65 369.98 467.52 370.16 471.78H372.56L372.53 461.49C372.53 461.49 375.41 461.58 375.92 461.61C376.67 461.64 376.19 462.3 376.19 462.9C376.19 462.9 376.19 469.05 376.19 474.84C376.19 480.03 376.25 485.73 376.25 485.76L372.53 485.82L372.56 474.99ZM366.65 472.89C366.65 470.13 366.14 467.13 364.28 467.13C362.42 467.13 361.76 470.4 361.82 472.89C361.88 475.17 362.78 478.23 364.28 478.2C366.08 478.17 366.65 475.2 366.65 472.89ZM382.58 487.05L378.8 487.11C378.8 487.08 378.86 478.62 378.86 473.64C378.86 466.59 378.83 460.56 378.83 460.5C378.83 460.5 381.68 460.56 382.25 460.59C383.15 460.62 382.55 461.61 382.55 462.03C382.55 462.06 382.52 470.97 382.52 473.04C382.52 478.5 382.58 487.05 382.58 487.05ZM363.68 500.54C363.74 500.48 365.87 500.66 367.22 500.78C368.75 500.93 367.43 502.1 367.49 502.64C367.49 502.7 367.04 506.66 368.21 509.57C370.01 514.01 373.52 515.84 373.55 515.87C373.49 515.93 372.62 516.59 372.17 517.19C371.66 517.85 371.06 518.84 371.03 518.9C371 518.87 369.65 518.12 367.85 515.87C366.11 513.68 365.69 511.94 365.66 511.88C365.63 511.94 365.03 513.8 363.32 516.05C361.67 518.24 360.05 519.41 359.99 519.47C359.96 519.44 359.21 518.63 358.67 518.06C358.1 517.46 357.08 516.83 357.05 516.8C357.08 516.77 360.23 514.76 362.06 510.74C364.19 506.06 363.68 500.54 363.68 500.54ZM381.98 524.93L377.99 524.99L378.08 511.25L372.53 511.28V507.68L378.08 507.77L378.05 498.5C378.05 498.5 381.35 498.59 381.8 498.65C382.61 498.77 381.95 499.82 381.95 500.24C381.95 500.24 381.92 505.43 381.92 511.22C381.92 516.56 381.98 524.9 381.98 524.93Z" fill="black"/>
<rect x="459" width="45" height="576" fill="url(#paint4_linear_282_389)"/>
<path d="M470 11.78C470.03 11.78 474.41 11.9 477.23 11.9C480.02 11.9 484.4 11.81 484.4 11.81C484.4 11.84 484.28 16.91 481.13 20.54C477.74 24.44 471.35 25.43 471.32 25.43C471.32 25.43 470.42 24.23 469.91 23.63C469.37 23 468.44 22.16 468.38 22.1C468.38 22.1 473.57 21.8 476.66 19.46C479.03 17.66 479.69 15.38 479.69 15.35C479.66 15.35 476.9 15.32 475.25 15.32C473.21 15.32 470.03 15.44 470 15.44V11.78ZM489.02 9.5C489.05 9.47 491.72 9.56 492.59 9.62C493.67 9.71 492.98 10.58 492.98 11.21C493.01 11.3 492.89 16.04 492.92 18.26C492.95 22.64 493.04 24.44 493.04 24.5L488.93 24.62C488.93 24.59 489.02 21.65 489.08 17.24C489.14 13.76 489.02 9.53 489.02 9.5ZM472.52 25.7C472.55 25.7 478.55 25.82 482.39 25.82C486.53 25.82 492.95 25.73 493.01 25.73L493.07 36.02L489.02 36.11L489.05 35.48C489.02 35.48 485.12 35.42 482.63 35.42C480.23 35.42 476.51 35.48 476.48 35.48L476.51 36.11L472.46 36.2L472.52 25.7ZM476.54 29.03V32.21C476.54 32.21 480.08 32.27 482.36 32.27C485.09 32.27 488.84 32.21 488.93 32.21V29.03C488.87 29.03 484.88 28.97 482.27 28.97C480.05 28.97 476.6 29.03 476.54 29.03ZM477.17 50.14C479.78 50.14 484.43 51.73 484.43 60.22C484.43 67.96 479.78 69.7 477.17 69.7C474.5 69.7 469.4 67.93 469.4 60.22C469.4 51.79 474.41 50.14 477.17 50.14ZM477.14 53.65C475.31 53.65 473.09 55.36 473.27 60.19C473.42 64.15 475.13 66.19 477.17 66.16C479.24 66.13 480.5 64.15 480.65 60.22C480.86 55.36 479.06 53.65 477.14 53.65ZM489.11 74.44C489.11 74.44 489.2 65.77 489.17 61.27C489.14 58.21 489.17 47.59 489.17 47.5C489.2 47.47 491.42 47.59 492.47 47.68C493.73 47.77 492.95 48.58 492.95 49.51C492.98 49.63 492.95 58.63 492.95 61.81C492.95 64.09 493.01 74.35 493.01 74.35L489.11 74.44ZM472.1 131.42C472.13 131.39 474.89 131.45 475.61 131.48C476.9 131.54 476.15 132.26 476.18 132.83C476.24 132.98 476.33 134.99 476.48 136.7C476.78 140.15 476.9 141.05 476.9 141.08C476.99 141.08 477.65 141.14 478.1 141.08C478.7 141.02 479.21 141.05 479.24 141.05C479.24 141.05 479.6 138.32 479.81 136.55C480.02 134.54 480.29 131.36 480.29 131.36C480.32 131.33 483.26 131.63 484.07 131.75C485.12 131.9 484.07 132.86 483.98 133.55C483.98 133.64 483.68 135.35 483.44 137.12C483.23 138.59 482.87 140.78 482.87 140.87C482.96 140.87 484.07 140.84 484.85 140.81C485.96 140.75 487.67 140.57 487.67 140.57L487.91 143.81C487.88 143.81 483.71 144.08 478.16 144.32C475.1 144.44 470.42 144.74 470.33 144.71C470.15 144.71 469.07 145.49 468.89 144.47C468.74 143.54 468.29 141.2 468.32 141.17C468.41 141.17 469.64 141.23 470.48 141.23C471.26 141.23 473.12 141.2 473.15 141.2C473.15 141.17 472.97 138.68 472.79 137.06C472.55 134.87 472.1 131.48 472.1 131.42ZM488.96 150.14C488.96 150.14 489.05 141.77 489.02 137.27C488.99 134.21 489.02 123.59 489.02 123.5C489.05 123.47 491.27 123.59 492.32 123.68C493.85 123.8 492.8 124.58 492.8 125.51C492.83 125.63 492.8 134.63 492.8 137.81C492.8 140.09 492.86 150.05 492.86 150.05L488.96 150.14ZM469.79 126.71C469.82 126.71 476.21 126.77 477.83 126.77C479.48 126.77 486.56 126.71 486.65 126.71V130.04C486.65 130.04 481.4 129.98 478.04 129.98C474.83 129.98 469.82 130.04 469.79 130.04V126.71ZM476 164.38C479.96 164.38 483.2 167.62 483.2 174.13C483.2 180.55 480.05 183.55 476 183.55C472.7 183.55 468.98 180.58 468.98 174.13C468.98 167.59 472.25 164.38 476 164.38ZM476.03 168.04C473.9 168.04 472.85 170.95 472.85 174.13C472.85 177.43 474.02 180.04 476 180.07C478.19 180.1 479.18 177.43 479.21 174.13C479.24 170.92 478.25 168.04 476.03 168.04ZM492.98 188.38L488.99 188.44L489.08 176.14L484.25 176.17V172.57L489.08 172.66L489.05 161.5C489.05 161.5 492.35 161.59 492.8 161.65C493.61 161.77 492.95 162.82 492.95 163.24C492.95 163.24 492.92 168.43 492.92 174.22C492.92 179.74 492.98 188.35 492.98 188.38ZM483.83 248.3L495.29 248.24V251.33C495.23 251.33 487.58 251.27 482.33 251.27C476.93 251.27 468.8 251.33 468.77 251.33V248.24L480.17 248.3V247.01C480.17 246.98 471.77 247.04 471.71 242.27C471.65 237.98 478.19 237.53 482.15 237.5C486.56 237.47 492.44 238.34 492.44 242.15C492.44 246.98 483.83 246.83 483.83 246.89V248.3ZM482.09 240.29C478.88 240.29 475.52 240.5 475.49 242.24C475.46 244.13 479.03 244.31 481.52 244.28C484.64 244.25 488.69 244.13 488.6 242.21C488.51 240.44 484.88 240.29 482.09 240.29ZM476.06 259.79V261.56C476.06 261.56 480.23 261.53 482.9 261.56C486.41 261.59 492.5 261.53 492.56 261.53V264.38C492.53 264.38 486.8 264.35 483.05 264.35C478.85 264.35 472.19 264.35 472.19 264.35V257.27C472.22 257.27 477.86 257.3 480.95 257.3C483.83 257.3 488.3 257.27 488.33 257.27V255.44C488.33 255.44 484.04 255.44 481.04 255.44C477.83 255.44 472.19 255.5 472.19 255.5V252.86C472.22 252.86 478.82 252.95 482.72 252.92C487.04 252.89 492.11 252.92 492.11 252.92V259.79C492.11 259.79 486.53 259.79 482.96 259.79C479.81 259.79 476.06 259.79 476.06 259.79ZM470.36 278.83L483.8 278.86L483.83 289.51L474.53 289.57L474.47 293.74C474.53 293.74 478.13 293.65 480.47 293.44C482.78 293.23 486.59 292.72 486.59 292.72L486.92 296.05C486.92 296.05 482.3 296.65 478.19 297.01C475.19 297.28 470.54 297.55 470.51 297.55L470.54 286.18L479.84 286.21L479.81 282.37L470.36 282.46V278.83ZM488.27 302.32C488.27 302.32 488.36 293.71 488.33 289.12C488.3 285.97 488.3 275.59 488.3 275.5C488.33 275.47 491.12 275.59 492.02 275.65C493.16 275.71 492.26 276.55 492.26 277.48L492.23 287.53L495.65 287.47V291.22L492.23 291.19L492.29 302.2L488.27 302.32ZM482 315.51C486.86 315.51 491.75 317.58 491.75 322.83C491.75 327.45 487.46 329.37 481.97 329.37C477.11 329.37 471.86 327.78 471.86 322.8C471.86 317.4 476.54 315.51 482 315.51ZM481.97 318.75C479.06 318.75 475.7 319.71 475.73 322.83C475.76 325.41 478.91 326.19 482 326.16C484.4 326.13 487.79 325.59 487.88 322.83C487.97 319.71 484.43 318.75 481.97 318.75ZM495.14 334.74V338.25C495.08 338.25 487.4 338.16 482.45 338.19C477.14 338.22 468.83 338.25 468.8 338.25V334.74L479.84 334.8L479.81 330.06C479.84 330.03 482.63 330.12 483.68 330.18C484.55 330.24 483.86 330.9 483.86 331.56L483.83 334.8L495.14 334.74ZM494.99 364.1V367.76C494.93 367.76 485.54 367.7 481.58 367.7C477.86 367.7 469.01 367.76 468.98 367.76V364.1C469.01 364.1 474.98 364.16 481.67 364.16C488.15 364.16 494.96 364.1 494.99 364.1ZM475.85 352.58C477.11 352.67 476.15 353.54 476.15 354.29V357.74C476.15 357.74 480.2 357.71 482.81 357.74C487.79 357.77 492.26 357.71 492.29 357.71V361.16C492.26 361.16 484.52 361.1 482.33 361.1C479.06 361.07 472.1 361.13 472.07 361.13V352.49C472.1 352.43 475.01 352.52 475.85 352.58ZM475.7 369.32C476.93 369.47 476 370.4 476 370.94V374.03C476 374.03 479.87 374 482.33 374.03C486.62 374.06 492.53 374 492.56 374V377.54C492.53 377.54 485.51 377.51 482.9 377.51C479.63 377.51 471.98 377.54 471.95 377.54V369.23C471.98 369.17 474.86 369.23 475.7 369.32ZM470.18 429.78C470.21 429.78 474.74 429.87 477.68 429.87C480.17 429.87 484.04 429.78 484.04 429.78C484.04 429.81 484.01 434.91 480.83 439.08C477.62 443.28 472.07 444.96 472.04 444.96C472.04 444.96 471.08 443.82 470.51 443.31C469.82 442.68 468.68 441.93 468.59 441.87C468.59 441.87 472.58 441.45 476.03 438.78C479.15 436.35 479.6 433.35 479.6 433.32C479.57 433.32 476.54 433.29 474.89 433.32C473.06 433.35 470.21 433.44 470.18 433.44V429.78ZM481.76 442.89C481.82 442.83 484.28 443.01 485.12 443.04C486.62 443.1 485.45 443.88 485.84 444.42C485.9 444.51 486.5 446.58 488.48 447.99C491.36 450.03 494.81 450.6 494.87 450.6C494.84 450.63 493.82 451.5 493.4 452.1C492.98 452.7 492.38 453.75 492.35 453.81C492.35 453.81 490.34 453.54 487.67 451.89C484.85 450.15 483.65 448.08 483.62 448.05C483.59 448.11 482.96 449.79 479.78 451.98C477.74 453.39 474.62 454.26 474.59 454.26C474.53 454.17 474.02 453.42 473.36 452.67C472.82 452.04 471.59 451.05 471.56 451.02C471.59 451.02 475.4 450.78 478.61 448.38C481.58 446.16 481.76 442.92 481.76 442.89ZM488.99 427.5C489.02 427.47 491.99 427.62 492.86 427.68C493.85 427.74 493.04 428.79 493.04 429.51C493.04 429.57 492.89 434.34 492.95 436.59C493.04 440.16 493.13 444.39 493.13 444.39L489.08 444.48L489.17 438.42L483.95 438.54V435.09L489.14 435.21L488.99 427.5ZM482.06 465.35C483.59 465.35 492.47 465.35 492.47 470.21C492.47 475.01 483.32 475.01 482.06 475.01C480.65 475.01 471.62 475.01 471.62 470.21C471.62 465.32 480.65 465.35 482.06 465.35ZM482.06 468.2C481.25 468.2 475.46 468.2 475.46 470.21C475.46 472.22 481.25 472.04 482.06 472.01C482.84 472.01 488.48 472.22 488.48 470.21C488.48 468.2 482.84 468.2 482.06 468.2ZM491.96 480.59V487.79C491.96 487.79 486.47 487.85 482.24 487.82C478.55 487.79 476.03 487.82 476.03 487.82V489.8C476.06 489.8 478.1 489.74 482.48 489.77C487.46 489.8 492.2 489.74 492.26 489.74V492.53C492.23 492.53 487.82 492.56 482.18 492.53C476.75 492.5 471.98 492.56 471.98 492.56L472.01 485.24C472.04 485.24 476.84 485.24 480.2 485.24C483.29 485.24 488.09 485.24 488.15 485.24V483.41C488.15 483.41 485.72 483.38 481.01 483.38C475.61 483.38 472.04 483.44 471.98 483.44V480.59C472.04 480.59 477.44 480.62 480.95 480.62C485.24 480.62 491.96 480.59 491.96 480.59ZM468.86 479.3V476.3C468.92 476.3 476.9 476.36 481.97 476.36C487.13 476.36 495.23 476.3 495.23 476.3V479.3C495.17 479.3 487.19 479.21 482.06 479.24C476.9 479.27 468.86 479.3 468.86 479.3ZM488.03 546.87L488 543.27C488 543.27 491.06 543.33 491.75 543.36C492.74 543.39 492.02 544.35 492.02 545.22V557.1C491.96 557.1 485.51 557.13 482.42 557.1C479.81 557.07 472.04 557.1 472.01 557.1V543.48C472.07 543.42 474.68 543.51 475.73 543.6C476.75 543.69 476.12 544.5 476.12 545.01V546.87C476.15 546.87 479.72 546.9 482 546.9C484.34 546.9 488.03 546.87 488.03 546.87ZM476.09 549.99V553.77C476.09 553.77 480.05 553.8 481.91 553.8C483.89 553.8 488 553.77 488.03 553.77V549.99C488 549.99 483.8 549.99 481.94 549.99C480.35 549.99 476.15 549.99 476.09 549.99ZM495.23 562.62V566.13C495.17 566.13 487.43 566.04 482.45 566.07C477.14 566.1 468.83 566.13 468.8 566.13V562.62L479.84 562.68L479.81 557.97C479.84 557.94 482.63 558.03 483.68 558.09C484.55 558.15 483.86 558.81 483.86 559.47L483.83 562.68L495.23 562.62ZM495.23 599.75V603.65C495.17 603.65 488.69 603.56 480.86 603.56C474.65 603.56 468.8 603.65 468.77 603.65V599.72C468.8 599.72 471.98 599.75 474.02 599.78C476.33 599.81 478.43 599.9 478.46 599.9C478.46 599.9 478.49 597.89 478.46 596.48C478.43 595.25 478.34 590.57 478.34 590.54C478.37 590.51 481.25 590.57 482.18 590.63C483.2 590.69 482.51 591.41 482.51 592.1C482.51 592.13 482.57 594.38 482.48 596.36C482.39 598.19 482.48 600.02 482.48 599.96C482.51 599.96 487.88 599.9 489.23 599.87C491.42 599.81 495.17 599.75 495.23 599.75ZM471.41 582.29C471.44 582.29 477.29 582.44 481.04 582.44C485.78 582.44 493.13 582.29 493.16 582.29C493.16 582.38 492.77 587.09 492.44 590.12C492.11 593.24 491.63 596.84 491.6 596.96C491.6 596.96 490.13 596.78 489.17 596.72C488.42 596.66 487.34 596.6 487.25 596.6C487.25 596.57 487.91 593.54 488.12 591.56C488.36 589.28 488.69 586.25 488.69 586.19C488.6 586.19 482.99 586.1 479.33 586.28C476.3 586.43 471.41 586.37 471.41 586.37V582.29ZM475.52 670.89C475.55 670.83 478.34 670.86 478.94 670.95C479.9 671.1 478.97 672.06 479.12 672.54C479.12 672.57 479.24 674.13 480.08 675.48C481.19 677.25 482.78 678 482.81 678.03C482.78 678.06 482.09 678.75 481.49 679.47C481.07 679.98 480.56 680.85 480.53 680.88C480.47 680.85 479.51 680.16 478.55 679.11C477.95 678.45 477.26 677.46 477.26 677.46C477.23 677.49 476.66 678.75 475.34 680.07C474.2 681.21 472.73 681.96 472.7 681.99C472.67 681.96 472.1 681.24 471.26 680.49C470.6 679.89 469.79 679.59 469.73 679.56C469.79 679.53 472.19 678.69 473.75 676.47C475.97 673.32 475.52 670.89 475.52 670.89ZM492.8 669.36L488.96 669.42C488.96 669.39 489.02 667.53 489.02 662.55C489.02 659.79 488.99 655.56 488.99 655.5C488.99 655.5 491.9 655.62 492.47 655.65C493.31 655.71 492.74 656.67 492.74 657.15C492.74 657.18 492.74 660 492.74 662.88C492.74 665.61 492.8 669.36 492.8 669.36ZM487.34 670.71C487.37 670.65 489.65 670.77 490.58 670.83C491.81 670.92 490.67 671.58 490.82 672.09C490.82 672.12 490.88 673.92 491.87 675.81C492.89 677.76 494.87 678.75 494.9 678.78C494.87 678.81 494.3 679.32 493.73 680.04C493.28 680.61 492.83 681.57 492.83 681.6C492.83 681.6 491.66 681.18 490.46 679.74C489.53 678.63 489.05 677.37 489.05 677.37C489.05 677.4 488.6 678.51 487.22 680.01C486.26 681.06 485.09 681.72 485.06 681.75C485.03 681.72 484.64 681.03 483.89 680.31C483.41 679.86 482.66 679.5 482.6 679.47C482.66 679.44 484.64 678.33 485.87 676.17C487.43 673.47 487.34 670.71 487.34 670.71ZM476.69 657.24C479.63 657.24 484.04 658.65 484.04 663.21C484.04 667.41 480.14 668.76 476.69 668.79C473.24 668.82 469.25 667.44 469.25 663.21C469.25 658.65 473.69 657.24 476.69 657.24ZM476.69 660.36C475.4 660.33 473 660.96 473.03 663.21C473.06 665.46 475.58 665.85 476.69 665.85C477.86 665.85 480.29 665.49 480.29 663.21C480.29 660.96 478.13 660.39 476.69 660.36ZM476.87 694.73C479.81 694.73 483.71 696.44 483.71 701.03C483.71 705.32 480.35 707.54 476.9 707.57C473.45 707.6 469.85 705.35 469.85 701.03C469.85 696.41 473.69 694.73 476.87 694.73ZM476.9 698.21C475.49 698.21 473.66 699.05 473.69 701.03C473.72 703.4 475.49 704.06 476.87 704.06C478.31 704.06 479.96 703.34 479.96 701C479.96 699.11 478.34 698.21 476.9 698.21ZM492.95 707.66L488.87 707.72L488.96 703.13L484.61 703.16V699.77L488.96 699.83L488.9 693.5C488.9 693.5 492.08 693.65 492.53 693.65C493.43 693.65 492.89 694.7 492.89 694.97C492.89 695 492.89 699.2 492.89 702.02C492.89 704.21 492.95 707.66 492.95 707.66ZM476.24 708.89C476.27 708.86 478.85 709.01 479.45 709.1C480.59 709.25 479.75 710.09 479.9 710.57C479.9 710.6 479.93 711.86 480.68 713.27C481.46 714.77 483.08 716.06 483.11 716.09C483.08 716.12 482.3 716.69 481.76 717.41C481.34 717.95 480.71 718.91 480.68 718.94C480.62 718.91 479.87 718.34 479 717.29C478.43 716.6 477.95 715.28 477.95 715.28C477.92 715.31 477.26 716.54 475.88 717.92C474.74 719.06 473.06 719.81 473.03 719.81C473 719.78 472.49 719.18 471.68 718.4C471.05 717.8 470.3 717.32 470.24 717.29C470.3 717.26 472.37 716.78 474.11 714.53C476.27 711.74 476.24 708.89 476.24 708.89ZM487.43 708.83C487.46 708.8 489.71 708.95 490.64 709.01C491.81 709.1 491.03 709.76 491.12 710.27C491.12 710.3 490.76 711.89 491.72 713.81C492.8 715.94 494.6 716.99 494.63 717.02C494.6 717.05 494.03 717.53 493.43 718.25C492.98 718.79 492.47 719.75 492.47 719.78C492.47 719.78 491.54 719.45 490.34 718.07C489.56 717.17 489.05 715.91 489.05 715.91C489.02 715.94 488.51 716.99 487.4 718.16C486.44 719.18 485.33 719.93 485.3 719.96C485.27 719.93 484.73 719.3 483.92 718.52C483.44 718.07 482.48 717.59 482.42 717.56C482.48 717.53 484.76 716.33 486.23 713.75C487.64 711.26 487.43 708.83 487.43 708.83ZM488.24 758.32C488.24 758.32 488.27 750.04 488.3 744.97C488.33 737.53 488.33 731.62 488.33 731.53C488.36 731.5 490.94 731.56 491.84 731.62C492.98 731.68 492.17 732.46 492.17 733.03L492.11 743.44L495.47 743.38V747.16L492.14 747.13L492.2 758.23L488.24 758.32ZM470.72 735.37H484.16V738.76L474.68 738.73V748.99C474.71 748.99 478.07 748.93 480.68 748.66C483.53 748.36 486.41 748 486.41 748L486.86 751.36C486.86 751.36 481.52 751.99 478.1 752.26C475.22 752.5 470.75 752.71 470.72 752.71V735.37Z" fill="black"/>
<path d="M553.8 276.69V272.76C553.89 272.76 558.87 272.79 562.11 272.85C565.83 272.91 571.68 272.88 571.71 272.79C571.74 272.79 572.31 269.61 572.61 267.54C572.97 265.02 573.24 260.85 573.24 260.82C573.18 260.82 569.01 260.85 565.53 260.91C562.02 260.97 556.5 260.97 556.5 260.97V257.31C556.56 257.31 562.14 257.4 565.77 257.4C570.45 257.4 577.74 257.31 577.74 257.31C577.74 257.37 577.29 262.68 576.78 266.28C576.42 268.74 575.85 272.79 575.85 272.79L580.23 272.73V276.66C580.23 276.66 569.22 276.6 565.74 276.6C562.23 276.6 553.83 276.69 553.8 276.69ZM555.42 295.37H560.97V298.31L558.66 298.28L558.63 308.75C558.66 308.75 559.35 308.75 559.92 308.6C560.4 308.48 561.15 308.3 561.15 308.3L561.6 311.27C561.48 311.3 559.56 311.69 558.24 311.87C557.22 312.02 555.42 312.11 555.39 312.11L555.42 295.37ZM572.49 306.32L572.52 316.52L569.28 316.58C569.28 316.58 569.34 309.05 569.37 303.83C569.4 300.56 569.34 292.28 569.34 292.16C569.37 292.13 571.14 292.19 571.98 292.25C573.3 292.34 572.52 293.09 572.52 293.84L572.49 303.17H574.83L574.8 291.5C574.83 291.47 576.93 291.59 577.74 291.62C579.3 291.68 578.4 292.61 578.4 293.48C578.4 293.51 578.4 299.3 578.4 302.24C578.4 307.37 578.46 318.29 578.46 318.32L574.77 318.38L574.83 306.32H572.49ZM562.08 295.4H567.99V298.43L565.11 298.4L565.08 308.57C565.08 308.57 566.01 308.54 566.61 308.45C567.21 308.36 568.14 308.15 568.17 308.15L568.56 311.15C568.53 311.15 566.52 311.6 565.2 311.78C563.82 311.96 562.08 311.99 562.05 311.99L562.08 295.4ZM562.02 368.76C566.37 368.79 569.49 371.49 569.16 375.39C568.86 378.78 566.25 381 561.9 380.94C557.37 380.88 554.37 378.27 554.61 374.55C554.88 370.56 558.27 368.73 562.02 368.76ZM562.05 371.73C559.59 371.67 558.39 373.02 558.3 374.67C558.18 376.53 559.65 377.73 561.69 377.82C564 377.91 565.41 376.65 565.47 375.09C565.53 373.29 564.42 371.79 562.05 371.73ZM573.27 386.82V385.59C573.27 385.59 568.86 385.56 565.86 385.56C562.17 385.56 557.91 385.62 557.88 385.62V382.77C557.91 382.77 562.05 382.8 566.88 382.8C570.93 382.8 577.17 382.77 577.2 382.77V389.61C577.17 389.61 573.21 389.58 569.01 389.58C565.83 389.58 562.17 389.58 562.17 389.58V390.78C562.17 390.78 565.11 390.75 568.89 390.78C574.2 390.81 577.92 390.75 577.95 390.75V393.78C577.92 393.78 571.02 393.78 568.62 393.75C566.85 393.75 558 393.78 557.97 393.78V386.88C558.03 386.88 562.65 386.85 566.22 386.88C569.04 386.91 573.27 386.82 573.27 386.82ZM573.3 381.24C573.3 381.24 573.36 379.77 573.33 375.03C573.3 372.21 573.33 367.59 573.33 367.5C573.36 367.47 576.03 367.59 576.81 367.65C577.86 367.74 577.23 368.31 577.23 369.12L577.17 374.58L580.89 374.55V378.09L577.17 378.03L577.2 381.21L573.3 381.24ZM562.11 407.39C566.19 407.36 569.43 409.76 569.31 413.72C569.19 417.35 565.74 419.63 561.84 419.57C557.49 419.51 554.49 416.96 554.7 413.24C554.91 409.22 558.45 407.42 562.11 407.39ZM562.08 410.6C559.74 410.57 558.45 411.65 558.45 413.39C558.45 415.37 559.92 416.24 561.63 416.36C564 416.51 565.47 415.49 565.53 413.63C565.59 411.95 564.27 410.63 562.08 410.6ZM573.24 419.6C573.24 419.6 573.3 416.63 573.3 412.49C573.3 408.56 573.27 405.53 573.27 405.5C573.3 405.47 576.51 405.68 577.08 405.68C577.77 405.68 577.29 406.64 577.29 407.03L577.26 412.25L580.98 412.22V415.91L577.26 415.85L577.29 419.48L573.24 419.6ZM561.3 420.86C561.36 420.8 564.09 420.95 564.69 421.04C565.83 421.19 564.9 421.88 565.02 422.27C565.02 422.3 565.02 423.74 565.83 425.09C566.82 426.71 568.14 427.52 568.17 427.55C568.14 427.58 567.21 428.24 566.58 428.87C566.1 429.35 565.56 430.07 565.53 430.1C565.47 430.04 564.87 429.65 564.12 428.75C563.49 428 563.13 427.43 563.13 427.43C563.1 427.46 562.53 428.69 561.12 430.07C559.98 431.18 558.51 432.08 558.48 432.11C558.45 432.08 558 431.51 557.1 430.76C556.44 430.22 555.48 429.74 555.42 429.71C555.48 429.68 557.85 428.72 559.65 426.29C561.57 423.71 561.3 420.86 561.3 420.86ZM572.19 420.71C572.25 420.65 574.56 420.77 575.49 420.89C576.6 421.04 575.64 421.76 575.76 422.18C575.76 422.21 575.67 424.16 576.93 425.99C578.4 428.15 580.05 428.96 580.08 428.99C580.05 429.02 579.27 429.74 578.7 430.52C578.34 431 577.98 431.81 577.98 431.84C577.98 431.84 576.48 431.18 575.28 429.65C574.14 428.21 573.87 427.4 573.87 427.4C573.84 427.43 573.33 428.63 571.89 430.19C570.93 431.24 569.64 432.14 569.61 432.17C569.58 432.14 569.19 431.54 568.14 430.73C567.63 430.34 566.76 429.92 566.7 429.89C566.76 429.86 569.4 428.15 570.63 426.08C572.49 422.99 572.19 420.71 572.19 420.71ZM573.24 470.32C573.24 470.32 573.27 462.04 573.3 456.97C573.33 449.53 573.33 443.62 573.33 443.53C573.36 443.5 575.94 443.56 576.84 443.62C577.98 443.68 577.17 444.46 577.17 445.03L577.11 455.44L580.47 455.38V459.16L577.14 459.13L577.2 470.23L573.24 470.32ZM555.72 447.37H569.16V450.76L559.68 450.73V460.99C559.71 460.99 563.07 460.93 565.68 460.66C568.53 460.36 571.41 460 571.41 460L571.86 463.36C571.86 463.36 566.52 463.99 563.1 464.26C560.22 464.5 555.75 464.71 555.72 464.71V447.37Z" fill="black"/>
<path d="M648.13 95.64C648.16 95.64 654.04 95.67 657.82 95.67C661.78 95.67 667.93 95.64 667.99 95.64V105.81C667.99 105.81 661.81 105.78 657.88 105.78C654.07 105.78 648.13 105.81 648.13 105.81V95.64ZM652.03 98.82V102.69C652.12 102.69 655.6 102.72 657.88 102.72C660.28 102.72 663.97 102.69 664.03 102.69V98.82C664 98.82 660.16 98.79 657.7 98.79C655.48 98.79 652.09 98.82 652.03 98.82ZM644.89 108.39C644.92 108.39 652.81 108.51 657.94 108.48C665.5 108.45 671.05 108.39 671.11 108.39V111.78L660.04 111.72L660.07 121.08L656.08 121.14L656.14 111.72L644.89 111.78V108.39ZM652.48 134.75C656.62 134.66 659.68 137.48 659.5 141.44C659.32 145.1 656.38 147.62 652.36 147.5C648.46 147.38 645.31 144.74 645.52 140.99C645.73 136.97 648.67 134.84 652.48 134.75ZM652.57 138.11C650.59 138.08 649.21 139.4 649.27 141.14C649.33 143 650.62 144.05 652.42 144.08C654.61 144.11 655.78 142.79 655.72 141.23C655.66 139.43 654.61 138.14 652.57 138.11ZM669.07 149.99L665.02 150.05L665.05 143.06L660.34 143.12V139.55L665.05 139.61L665.02 132.47C665.02 132.47 668.17 132.62 668.62 132.62C669.52 132.62 669.04 133.67 669.04 133.94C669.04 133.97 669.01 139.31 669.01 142.13C669.01 145.19 669.07 149.99 669.07 149.99ZM657.19 148.46C657.25 148.4 659.59 148.55 660.43 148.64C661.63 148.76 660.76 149.45 660.97 149.75C661 149.84 661.24 151.52 663.61 153.29C666.58 155.51 670.21 155.63 670.27 155.63C670.18 155.69 669.13 156.68 668.59 157.46C668.2 158.03 667.96 158.81 667.93 158.87C667.93 158.87 665.38 158.81 662.11 156.65C660.01 155.27 659.23 153.44 659.2 153.41C659.14 153.47 657.7 155.75 654.52 157.43C651.88 158.81 650.47 158.9 650.44 158.9C650.38 158.81 649.96 158.15 649.24 157.37C648.67 156.74 647.74 156.11 647.65 156.05C647.77 156.05 650.35 155.9 653.29 154.13C657.73 151.46 657.19 148.49 657.19 148.46ZM652.57 172.27C656.35 172.27 660.13 174.25 660.13 178.72C660.13 183.01 656.74 185.41 652.57 185.44C648.67 185.47 645.1 183.01 645.1 178.75C645.1 174.22 649.12 172.27 652.57 172.27ZM652.57 175.51C650.56 175.48 648.85 176.65 648.88 178.75C648.91 180.67 650.95 182.23 652.57 182.23C655.3 182.23 656.26 180.64 656.26 178.75C656.26 176.68 654.58 175.54 652.57 175.51ZM668.95 189.4L664.96 189.46C664.96 189.43 665.02 184.48 665.02 179.5C665.02 175.99 664.99 170.56 664.99 170.5C664.99 170.5 668.14 170.59 668.71 170.62C669.55 170.68 668.92 171.67 668.92 172.15C668.92 172.18 668.89 177.46 668.89 180.34C668.89 184.48 668.95 189.4 668.95 189.4ZM669.25 196.75C669.22 196.75 664.45 196.72 659.65 196.72C655.36 196.72 648.52 196.72 648.43 196.72V188.38C648.46 188.35 651.73 188.53 652.18 188.53C653.26 188.53 652.6 189.52 652.6 189.94V193.21C652.63 193.21 656.32 193.15 660.19 193.18C664.27 193.21 669.22 193.15 669.25 193.15V196.75ZM646.54 212.25C646.57 212.25 650.65 212.37 653.26 212.37C655.84 212.37 659.86 212.25 659.89 212.25C659.89 212.25 660.46 218.28 656.68 223.26C652.36 228.93 647.41 230.64 647.38 230.64C647.35 230.61 646.45 229.59 645.88 229.08C645.28 228.54 644.32 227.82 644.29 227.79C644.35 227.76 649.48 226.26 652.69 222.33C655.33 219.09 655.75 215.91 655.75 215.85C655.72 215.85 653.05 215.79 651.25 215.88C649.45 215.97 646.54 216.03 646.54 216.03V212.25ZM664.24 235.5C664.24 235.5 664.27 226.53 664.36 222.06C664.48 216.9 664.27 208.59 664.27 208.5C664.3 208.47 667.06 208.62 667.99 208.65C669.04 208.68 668.29 209.46 668.29 210.3C668.29 210.3 668.26 214.23 668.23 216.06C668.2 218.37 668.23 220.62 668.23 220.62L671.74 220.53V224.49L668.2 224.4C668.2 224.43 668.17 226.83 668.23 229.26C668.26 230.67 668.35 235.41 668.35 235.41L664.24 235.5ZM658.09 300.97C665.05 301.09 668.86 302.32 668.95 305.95C669.01 309.01 665.86 311.08 658.21 311.11C651.07 311.14 647.92 309.19 647.95 305.95C647.98 302.26 652.93 300.88 658.09 300.97ZM658.63 303.76C656.23 303.76 652.06 303.88 651.97 305.92C651.91 307.48 653.29 308.35 658.27 308.32C662.29 308.29 665.08 307.51 664.96 305.8C664.84 304 661.57 303.76 658.63 303.76ZM664.99 300.52L665.02 297.55L660.61 297.61V294.43L665.02 294.49V291.52L660.61 291.55V288.52L665.02 288.58L664.99 284.5C664.99 284.5 668.23 284.53 668.62 284.56C669.52 284.62 668.98 285.28 668.98 285.79C668.98 285.82 668.98 288.85 668.98 291.4C668.98 293.68 669.04 300.43 669.04 300.46L664.99 300.52ZM652.63 286.3C657.25 286.3 660.1 289.21 659.98 293.08C659.86 296.71 656.53 299.32 652.69 299.23C648.34 299.14 645.28 296.26 645.49 292.54C645.7 288.52 648.64 286.3 652.63 286.3ZM652.87 289.45C650.62 289.39 649.39 290.68 649.21 292.42C649 294.61 650.86 296.05 652.69 296.05C654.55 296.05 656.17 294.67 656.23 292.81C656.29 291.07 654.94 289.51 652.87 289.45ZM653.62 323.64C657.28 323.55 660.88 324.96 660.82 328.29C660.76 331.41 657.64 332.82 653.8 332.79C650.17 332.79 646.57 331.38 646.75 327.96C646.93 324.81 650.47 323.73 653.62 323.64ZM653.8 326.43C652.03 326.4 650.38 327.09 650.38 328.26C650.38 329.16 651.7 329.94 653.65 329.97C655.33 330 657.22 329.34 657.25 328.41C657.28 327.12 655.78 326.46 653.8 326.43ZM668.89 342.99L664.9 343.05L664.93 341.46L659.8 341.52V338.34L665.02 338.4L664.99 322.5C664.99 322.5 668.14 322.71 668.59 322.68C669.37 322.65 668.86 323.37 668.86 323.64C668.86 323.67 668.83 329.52 668.83 332.34C668.83 336.48 668.89 342.99 668.89 342.99ZM645.04 334.65C645.07 334.65 650.92 334.59 654.67 334.41C658.57 334.23 662.56 333.75 662.65 333.75L662.98 336.75C662.95 336.75 661.18 336.87 660.04 336.96C658.66 337.05 656.56 337.23 656.53 337.23L656.59 341.79L652.84 341.85L652.9 337.38C652.9 337.38 650.92 337.53 649.66 337.62C648.55 337.71 646.9 337.83 646.84 337.83C646.33 337.89 645.73 338.55 645.49 337.5C645.31 336.72 645.01 334.68 645.04 334.65ZM669.4 348.87C669.37 348.87 664.84 348.81 660.04 348.81C655.75 348.81 648.22 348.81 648.19 348.81V340.59C648.22 340.56 651.28 340.86 651.73 340.86C652.72 340.86 652.09 341.64 652.09 342.06V345.51C652.12 345.51 656.41 345.48 660.28 345.51C664.36 345.54 669.37 345.45 669.4 345.45V348.87ZM654.28 371.84C657.34 371.84 661.36 373.31 661.36 377.15C661.36 381.26 657.43 382.67 654.28 382.67C651.46 382.67 646.78 381.26 646.78 377.12C646.78 373.13 651.22 371.84 654.28 371.84ZM654.28 374.66C652.9 374.66 650.92 375.38 650.89 377.12C650.86 378.77 652.87 379.7 654.28 379.67C655.9 379.64 657.52 378.77 657.52 377.06C657.52 375.44 655.9 374.66 654.28 374.66ZM649.84 362.45C649.87 362.45 652.57 362.51 654.19 362.51C655.84 362.51 658.57 362.45 658.66 362.45V365.39C658.66 365.39 656.05 365.36 654.4 365.36C652.63 365.36 649.87 365.39 649.84 365.39V362.45ZM665.11 386.72C665.11 386.72 665.2 378.77 665.17 374.27C665.14 371.21 665.17 360.59 665.17 360.5C665.2 360.47 667.42 360.59 668.47 360.68C670 360.8 668.95 361.58 668.95 362.51C668.98 362.63 668.95 371.63 668.95 374.81C668.95 377.09 669.01 386.63 669.01 386.63L665.11 386.72ZM645.19 367.16C645.22 367.16 652.78 367.22 654.4 367.22C656.98 367.22 662.98 367.16 663.07 367.16V370.43C663.07 370.43 657.91 370.37 654.61 370.37C650.95 370.37 645.22 370.43 645.19 370.43V367.16ZM646.18 440.28C646.3 440.28 650.98 440.34 654.04 440.34C657.1 440.34 661.84 440.28 661.87 440.28V443.79L655.96 443.76C655.96 443.76 655.27 446.25 656.98 449.61C659.02 453.63 662.59 455.16 662.65 455.19C662.62 455.22 661.75 455.85 661.21 456.51C660.67 457.17 660.25 457.98 660.22 458.01C660.19 457.98 658.33 457.14 656.44 454.95C654.52 452.73 653.98 451.11 653.98 451.08C653.98 451.11 653.14 453.15 651.28 455.25C649.78 456.96 647.2 458.49 647.17 458.52C647.11 458.43 646.42 457.44 645.73 456.81C645.19 456.33 644.17 455.76 644.14 455.73C644.2 455.7 648.28 453.69 650.35 450.06C652.3 446.64 652.27 443.82 652.27 443.76L646.18 443.79V440.28ZM665.11 463.44C665.11 463.44 665.2 454.77 665.17 450.27C665.14 447.21 665.17 436.59 665.17 436.5C665.2 436.47 667.42 436.59 668.47 436.68C669.73 436.77 668.95 437.58 668.95 438.51C668.98 438.63 668.95 447.63 668.95 450.81C668.95 453.09 669.01 463.35 669.01 463.35L665.11 463.44ZM646.6 478.34C646.63 478.31 648.94 478.4 650.14 478.46C651.7 478.52 650.8 479.48 650.8 480.2L650.77 490.22C650.8 490.22 654.88 490.07 657.13 489.83C660.37 489.47 662.83 489.17 662.86 489.17L663.13 492.59C663.01 492.62 660.28 492.98 654.61 493.55C650.8 493.94 646.63 494 646.6 494V478.34ZM664.3 501.38C664.3 501.38 664.39 492.47 664.48 488C664.57 482.84 664.36 474.59 664.36 474.5C664.39 474.47 667.06 474.53 667.96 474.59C669.16 474.65 668.38 475.13 668.38 476.06L668.29 486.26L671.74 486.17V490.01L668.29 489.95L668.47 501.26L664.3 501.38ZM646.54 516.25C646.57 516.25 650.65 516.37 653.26 516.37C655.84 516.37 659.86 516.25 659.89 516.25C659.89 516.25 660.46 522.28 656.68 527.26C652.36 532.93 647.41 534.64 647.38 534.64C647.35 534.61 646.45 533.59 645.88 533.08C645.28 532.54 644.32 531.82 644.29 531.79C644.35 531.76 649.48 530.26 652.69 526.33C655.33 523.09 655.75 519.91 655.75 519.85C655.72 519.85 653.05 519.79 651.25 519.88C649.45 519.97 646.54 520.03 646.54 520.03V516.25ZM664.24 539.5C664.24 539.5 664.27 530.53 664.36 526.06C664.48 520.9 664.27 512.59 664.27 512.5C664.3 512.47 667.06 512.62 667.99 512.65C669.04 512.68 668.29 513.46 668.29 514.3C668.29 514.3 668.26 518.23 668.23 520.06C668.2 522.37 668.23 524.62 668.23 524.62L671.74 524.53V528.49L668.2 528.4C668.2 528.43 668.17 530.83 668.23 533.26C668.26 534.67 668.35 539.41 668.35 539.41L664.24 539.5ZM668.98 615.38L664.99 615.44L665.08 602.87L660.43 602.9V599.3L665.08 599.39L665.05 588.5C665.05 588.5 668.35 588.59 668.8 588.65C669.61 588.77 668.95 589.82 668.95 590.24C668.95 590.24 668.92 595.43 668.92 601.22C668.92 606.74 668.98 615.35 668.98 615.38ZM655.33 596.96L655.3 591.53C655.3 591.53 657.88 591.62 658.57 591.65C659.59 591.68 659.05 592.61 659.05 593.48C659.05 593.51 659.02 598.73 659.02 600.83C659.02 602.57 659.02 609.35 659.02 609.38H646.33C646.33 609.35 646.27 602.66 646.3 600.77C646.36 597.2 646.3 591.65 646.3 591.62C646.33 591.59 648.64 591.68 649.69 591.74C650.74 591.8 650.14 592.85 650.14 593.36V596.96H655.33ZM650.08 600.2V606.02H655.33V600.2H650.08ZM650.08 636.19V638.59C650.11 638.59 651.43 638.71 654.76 638.56C658.09 638.41 659.68 638.14 659.74 638.14L660.07 641.08C660.04 641.08 658.6 641.38 654.73 641.59C650.71 641.8 646.3 641.74 646.3 641.74V633.07L655.48 633.13V631.06L646.24 631.09V627.85L659.35 627.88V636.19H650.08ZM662.95 643.03C662.95 643.03 666.28 643.15 666.58 643.18C667.36 643.24 666.76 643.84 666.82 644.08C666.88 644.26 666.91 645.94 667.75 647.38C668.83 649.21 670.54 649.93 670.54 649.93C670.54 649.93 669.76 650.71 669.28 651.28C668.83 651.82 668.44 652.66 668.41 652.72C668.41 652.72 667.33 652.18 666.31 651.04C665.41 650.02 664.9 648.91 664.87 648.85C664.84 648.88 664.3 649.99 663.19 651.19C662.2 652.27 660.73 653.2 660.7 653.23C660.67 653.2 659.89 652.27 659.35 651.73C658.81 651.19 658.12 650.74 658.09 650.71C658.12 650.71 660.91 649.39 662.26 646.81C663.19 645.01 662.95 643.09 662.95 643.03ZM665.05 641.86L665.08 639.76L661.09 639.85V636.46L665.08 636.49V634.03L661.15 634.06V630.79L665.08 630.82L665.05 626.59C665.05 626.59 668.26 626.71 668.65 626.68C669.58 626.62 668.89 627.88 668.89 628.12C668.89 628.15 668.83 632.44 668.86 634.99C668.89 638.05 668.92 641.8 668.92 641.83L665.05 641.86ZM651.73 642.82C651.76 642.79 654.73 643.09 655.15 643.09C656.2 643.09 655.15 644.05 655.21 644.26C655.24 644.71 655.21 645.55 655.75 646.57C656.59 648.16 658.15 649.33 658.18 649.36C658.15 649.39 657.34 650.2 656.95 650.71C656.56 651.22 656.11 652.27 656.08 652.33C656.08 652.33 654.91 651.52 654.31 650.53C653.71 649.54 653.41 648.82 653.38 648.76C653.35 648.82 652.57 650.17 651.25 651.31C649.9 652.48 648.46 653.11 648.43 653.11C648.4 653.08 647.77 652.18 647.05 651.58C646.36 651.01 645.73 650.59 645.64 650.53C645.67 650.53 648.46 650.02 650.26 647.29C651.79 644.98 651.73 642.88 651.73 642.82ZM664.24 691.32C664.24 691.32 664.27 683.04 664.3 677.97C664.33 670.53 664.33 664.62 664.33 664.53C664.36 664.5 666.94 664.56 667.84 664.62C668.98 664.68 668.17 665.46 668.17 666.03L668.11 676.44L671.47 676.38V680.16L668.14 680.13L668.2 691.23L664.24 691.32ZM646.72 668.37H660.16V671.76L650.68 671.73V681.99C650.71 681.99 654.07 681.93 656.68 681.66C659.53 681.36 662.41 681 662.41 681L662.86 684.36C662.86 684.36 657.52 684.99 654.1 685.26C651.22 685.5 646.75 685.71 646.72 685.71V668.37ZM671.23 722.75V726.65C671.17 726.65 664.69 726.56 656.86 726.56C650.65 726.56 644.8 726.65 644.77 726.65V722.72C644.8 722.72 647.98 722.75 650.02 722.78C652.33 722.81 654.43 722.9 654.46 722.9C654.46 722.9 654.49 720.89 654.46 719.48C654.43 718.25 654.34 713.57 654.34 713.54C654.37 713.51 657.25 713.57 658.18 713.63C659.2 713.69 658.51 714.41 658.51 715.1C658.51 715.13 658.57 717.38 658.48 719.36C658.39 721.19 658.48 723.02 658.48 722.96C658.51 722.96 663.88 722.9 665.23 722.87C667.42 722.81 671.17 722.75 671.23 722.75ZM647.41 705.29C647.44 705.29 653.29 705.44 657.04 705.44C661.78 705.44 669.13 705.29 669.16 705.29C669.16 705.38 668.77 710.09 668.44 713.12C668.11 716.24 667.63 719.84 667.6 719.96C667.6 719.96 666.13 719.78 665.17 719.72C664.42 719.66 663.34 719.6 663.25 719.6C663.25 719.57 663.91 716.54 664.12 714.56C664.36 712.28 664.69 709.25 664.69 709.19C664.6 709.19 658.99 709.1 655.33 709.28C652.3 709.43 647.41 709.37 647.41 709.37V705.29Z" fill="black"/>
<path d="M731.18 378.28C731.3 378.28 735.98 378.34 739.04 378.34C742.1 378.34 746.84 378.28 746.87 378.28V381.79L740.96 381.76C740.96 381.76 740.27 384.25 741.98 387.61C744.02 391.63 747.59 393.16 747.65 393.19C747.62 393.22 746.75 393.85 746.21 394.51C745.67 395.17 745.25 395.98 745.22 396.01C745.19 395.98 743.33 395.14 741.44 392.95C739.52 390.73 738.98 389.11 738.98 389.08C738.98 389.11 738.14 391.15 736.28 393.25C734.78 394.96 732.2 396.49 732.17 396.52C732.11 396.43 731.42 395.44 730.73 394.81C730.19 394.33 729.17 393.76 729.14 393.73C729.2 393.7 733.28 391.69 735.35 388.06C737.3 384.64 737.27 381.82 737.27 381.76L731.18 381.79V378.28ZM750.11 401.44C750.11 401.44 750.2 392.77 750.17 388.27C750.14 385.21 750.17 374.59 750.17 374.5C750.2 374.47 752.42 374.59 753.47 374.68C754.73 374.77 753.95 375.58 753.95 376.51C753.98 376.63 753.95 385.63 753.95 388.81C753.95 391.09 754.01 401.35 754.01 401.35L750.11 401.44ZM742.97 425.85C735.53 425.85 729.77 426 729.74 426V422.13C729.77 422.13 735.65 422.28 739.43 422.28C743.15 422.28 748.37 422.16 748.37 422.16C748.4 422.07 748.76 420.75 748.97 419.43C749.21 418.02 749.27 416.85 749.27 416.79C749.27 416.79 744.62 416.76 741.71 416.76C739.13 416.76 732.74 416.91 732.71 416.91V413.13C732.77 413.13 737.3 413.25 742.4 413.25C746.03 413.25 753.71 413.13 753.74 413.13C753.74 413.13 753.68 415.14 753.29 417.81C752.96 420.12 752.39 422.13 752.39 422.16L756.26 422.1V426C756.26 426 750.65 425.85 742.97 425.85ZM732.8 428.37C732.8 428.37 738.59 428.49 742.31 428.49C746.57 428.49 753.23 428.37 753.26 428.37L753.32 438.96L749.09 439.05V438.33C749.09 438.33 745.25 438.24 742.79 438.24C740.51 438.24 736.97 438.33 736.94 438.33V438.93L732.77 439.02L732.8 428.37ZM749.09 431.97C749.09 431.97 745.46 431.91 742.85 431.94C740.03 431.97 736.97 432 736.97 432L737 434.79C737 434.79 740.54 434.85 742.79 434.85C745.25 434.85 749.06 434.79 749.09 434.79V431.97ZM733.16 453.59C733.19 453.59 739.22 453.62 743.09 453.62C746.99 453.62 753.11 453.59 753.11 453.59V457.04C753.11 457.04 747.8 456.98 744.41 456.98C741.56 456.98 737.09 456.98 737.06 456.98V462.11C737.15 462.11 741.23 462.14 744.29 462.14C747.89 462.14 753.17 462.08 753.2 462.08V465.35L744.95 465.32V471.05L756.08 470.99V474.23C756.08 474.23 748.4 474.2 743.48 474.2C738.26 474.2 729.98 474.23 729.98 474.23V471.02L741.2 471.05V465.32L733.13 465.35L733.16 453.59ZM743.09 542.97C750.05 543.09 753.86 544.32 753.95 547.95C754.01 551.01 750.86 553.08 743.21 553.11C736.07 553.14 732.92 551.19 732.95 547.95C732.98 544.26 737.93 542.88 743.09 542.97ZM743.63 545.76C741.23 545.76 737.06 545.88 736.97 547.92C736.91 549.48 738.29 550.35 743.27 550.32C747.29 550.29 750.08 549.51 749.96 547.8C749.84 546 746.57 545.76 743.63 545.76ZM749.99 542.52L750.02 539.55L745.61 539.61V536.43L750.02 536.49V533.52L745.61 533.55V530.52L750.02 530.58L749.99 526.5C749.99 526.5 753.23 526.53 753.62 526.56C754.52 526.62 753.98 527.28 753.98 527.79C753.98 527.82 753.98 530.85 753.98 533.4C753.98 535.68 754.04 542.43 754.04 542.46L749.99 542.52ZM737.63 528.3C742.25 528.3 745.1 531.21 744.98 535.08C744.86 538.71 741.53 541.32 737.69 541.23C733.34 541.14 730.28 538.26 730.49 534.54C730.7 530.52 733.64 528.3 737.63 528.3ZM737.87 531.45C735.62 531.39 734.39 532.68 734.21 534.42C734 536.61 735.86 538.05 737.69 538.05C739.55 538.05 741.17 536.67 741.23 534.81C741.29 533.07 739.94 531.51 737.87 531.45ZM738.62 565.64C742.28 565.55 745.88 566.96 745.82 570.29C745.76 573.41 742.64 574.82 738.8 574.79C735.17 574.79 731.57 573.38 731.75 569.96C731.93 566.81 735.47 565.73 738.62 565.64ZM738.8 568.43C737.03 568.4 735.38 569.09 735.38 570.26C735.38 571.16 736.7 571.94 738.65 571.97C740.33 572 742.22 571.34 742.25 570.41C742.28 569.12 740.78 568.46 738.8 568.43ZM753.89 584.99L749.9 585.05L749.93 583.46L744.8 583.52V580.34L750.02 580.4L749.99 564.5C749.99 564.5 753.14 564.71 753.59 564.68C754.37 564.65 753.86 565.37 753.86 565.64C753.86 565.67 753.83 571.52 753.83 574.34C753.83 578.48 753.89 584.99 753.89 584.99ZM730.04 576.65C730.07 576.65 735.92 576.59 739.67 576.41C743.57 576.23 747.56 575.75 747.65 575.75L747.98 578.75C747.95 578.75 746.18 578.87 745.04 578.96C743.66 579.05 741.56 579.23 741.53 579.23L741.59 583.79L737.84 583.85L737.9 579.38C737.9 579.38 735.92 579.53 734.66 579.62C733.55 579.71 731.9 579.83 731.84 579.83C731.33 579.89 730.73 580.55 730.49 579.5C730.31 578.72 730.01 576.68 730.04 576.65ZM754.4 590.87C754.37 590.87 749.84 590.81 745.04 590.81C740.75 590.81 733.22 590.81 733.19 590.81V582.59C733.22 582.56 736.28 582.86 736.73 582.86C737.72 582.86 737.09 583.64 737.09 584.06V587.51C737.12 587.51 741.41 587.48 745.28 587.51C749.36 587.54 754.37 587.45 754.4 587.45V590.87ZM739.28 613.84C742.34 613.84 746.36 615.31 746.36 619.15C746.36 623.26 742.43 624.67 739.28 624.67C736.46 624.67 731.78 623.26 731.78 619.12C731.78 615.13 736.22 613.84 739.28 613.84ZM739.28 616.66C737.9 616.66 735.92 617.38 735.89 619.12C735.86 620.77 737.87 621.7 739.28 621.67C740.9 621.64 742.52 620.77 742.52 619.06C742.52 617.44 740.9 616.66 739.28 616.66ZM734.84 604.45C734.87 604.45 737.57 604.51 739.19 604.51C740.84 604.51 743.57 604.45 743.66 604.45V607.39C743.66 607.39 741.05 607.36 739.4 607.36C737.63 607.36 734.87 607.39 734.84 607.39V604.45ZM750.11 628.72C750.11 628.72 750.2 620.77 750.17 616.27C750.14 613.21 750.17 602.59 750.17 602.5C750.2 602.47 752.42 602.59 753.47 602.68C755 602.8 753.95 603.58 753.95 604.51C753.98 604.63 753.95 613.63 753.95 616.81C753.95 619.09 754.01 628.63 754.01 628.63L750.11 628.72ZM730.19 609.16C730.22 609.16 737.78 609.22 739.4 609.22C741.98 609.22 747.98 609.16 748.07 609.16V612.43C748.07 612.43 742.91 612.37 739.61 612.37C735.95 612.37 730.22 612.43 730.19 612.43V609.16Z" fill="black"/>
<path d="M822.18 399.28C822.3 399.28 826.98 399.34 830.04 399.34C833.1 399.34 837.84 399.28 837.87 399.28V402.79L831.96 402.76C831.96 402.76 831.27 405.25 832.98 408.61C835.02 412.63 838.59 414.16 838.65 414.19C838.62 414.22 837.75 414.85 837.21 415.51C836.67 416.17 836.25 416.98 836.22 417.01C836.19 416.98 834.33 416.14 832.44 413.95C830.52 411.73 829.98 410.11 829.98 410.08C829.98 410.11 829.14 412.15 827.28 414.25C825.78 415.96 823.2 417.49 823.17 417.52C823.11 417.43 822.42 416.44 821.73 415.81C821.19 415.33 820.17 414.76 820.14 414.73C820.2 414.7 824.28 412.69 826.35 409.06C828.3 405.64 828.27 402.82 828.27 402.76L822.18 402.79V399.28ZM841.11 422.44C841.11 422.44 841.2 413.77 841.17 409.27C841.14 406.21 841.17 395.59 841.17 395.5C841.2 395.47 843.42 395.59 844.47 395.68C845.73 395.77 844.95 396.58 844.95 397.51C844.98 397.63 844.95 406.63 844.95 409.81C844.95 412.09 845.01 422.35 845.01 422.35L841.11 422.44ZM822.6 437.34C822.63 437.31 824.94 437.4 826.14 437.46C827.7 437.52 826.8 438.48 826.8 439.2L826.77 449.22C826.8 449.22 830.88 449.07 833.13 448.83C836.37 448.47 838.83 448.17 838.86 448.17L839.13 451.59C839.01 451.62 836.28 451.98 830.61 452.55C826.8 452.94 822.63 453 822.6 453V437.34ZM840.3 460.38C840.3 460.38 840.39 451.47 840.48 447C840.57 441.84 840.36 433.59 840.36 433.5C840.39 433.47 843.06 433.53 843.96 433.59C845.16 433.65 844.38 434.13 844.38 435.06L844.29 445.26L847.74 445.17V449.01L844.29 448.95L844.47 460.26L840.3 460.38ZM822.54 475.25C822.57 475.25 826.65 475.37 829.26 475.37C831.84 475.37 835.86 475.25 835.89 475.25C835.89 475.25 836.46 481.28 832.68 486.26C828.36 491.93 823.41 493.64 823.38 493.64C823.35 493.61 822.45 492.59 821.88 492.08C821.28 491.54 820.32 490.82 820.29 490.79C820.35 490.76 825.48 489.26 828.69 485.33C831.33 482.09 831.75 478.91 831.75 478.85C831.72 478.85 829.05 478.79 827.25 478.88C825.45 478.97 822.54 479.03 822.54 479.03V475.25ZM840.24 498.5C840.24 498.5 840.27 489.53 840.36 485.06C840.48 479.9 840.27 471.59 840.27 471.5C840.3 471.47 843.06 471.62 843.99 471.65C845.04 471.68 844.29 472.46 844.29 473.3C844.29 473.3 844.26 477.23 844.23 479.06C844.2 481.37 844.23 483.62 844.23 483.62L847.74 483.53V487.49L844.2 487.4C844.2 487.43 844.17 489.83 844.23 492.26C844.26 493.67 844.35 498.41 844.35 498.41L840.24 498.5ZM844.98 536.38L840.99 536.44L841.08 523.87L836.43 523.9V520.3L841.08 520.39L841.05 509.5C841.05 509.5 844.35 509.59 844.8 509.65C845.61 509.77 844.95 510.82 844.95 511.24C844.95 511.24 844.92 516.43 844.92 522.22C844.92 527.74 844.98 536.35 844.98 536.38ZM831.33 517.96L831.3 512.53C831.3 512.53 833.88 512.62 834.57 512.65C835.59 512.68 835.05 513.61 835.05 514.48C835.05 514.51 835.02 519.73 835.02 521.83C835.02 523.57 835.02 530.35 835.02 530.38H822.33C822.33 530.35 822.27 523.66 822.3 521.77C822.36 518.2 822.3 512.65 822.3 512.62C822.33 512.59 824.64 512.68 825.69 512.74C826.74 512.8 826.14 513.85 826.14 514.36V517.96H831.33ZM826.08 521.2V527.02H831.33V521.2H826.08ZM821.97 550.62L835.68 550.65L835.71 561.63L826.05 561.6L826.02 566.04C826.02 566.04 829.65 566.04 831.99 565.89C836.49 565.62 839.07 565.17 839.07 565.17L839.46 568.68C839.46 568.68 835.05 569.31 830.67 569.58C827.28 569.79 822.03 569.76 822 569.76L822.03 558.12L831.63 558.15V554.25L821.97 554.28V550.62ZM841.02 574.5C841.02 574.5 841.11 566.85 841.08 562.35C841.05 559.29 841.08 547.59 841.08 547.5C841.11 547.47 843.33 547.59 844.38 547.68C845.64 547.77 844.86 548.58 844.86 549.51C844.89 549.63 844.86 559.71 844.86 562.89C844.86 565.17 844.92 574.41 844.92 574.41L841.02 574.5ZM847.23 605.75V609.65C847.17 609.65 840.69 609.56 832.86 609.56C826.65 609.56 820.8 609.65 820.77 609.65V605.72C820.8 605.72 823.98 605.75 826.02 605.78C828.33 605.81 830.43 605.9 830.46 605.9C830.46 605.9 830.49 603.89 830.46 602.48C830.43 601.25 830.34 596.57 830.34 596.54C830.37 596.51 833.25 596.57 834.18 596.63C835.2 596.69 834.51 597.41 834.51 598.1C834.51 598.13 834.57 600.38 834.48 602.36C834.39 604.19 834.48 606.02 834.48 605.96C834.51 605.96 839.88 605.9 841.23 605.87C843.42 605.81 847.17 605.75 847.23 605.75ZM823.41 588.29C823.44 588.29 829.29 588.44 833.04 588.44C837.78 588.44 845.13 588.29 845.16 588.29C845.16 588.38 844.77 593.09 844.44 596.12C844.11 599.24 843.63 602.84 843.6 602.96C843.6 602.96 842.13 602.78 841.17 602.72C840.42 602.66 839.34 602.6 839.25 602.6C839.25 602.57 839.91 599.54 840.12 597.56C840.36 595.28 840.69 592.25 840.69 592.19C840.6 592.19 834.99 592.1 831.33 592.28C828.3 592.43 823.41 592.37 823.41 592.37V588.29ZM827.52 676.89C827.55 676.83 830.34 676.86 830.94 676.95C831.9 677.1 830.97 678.06 831.12 678.54C831.12 678.57 831.24 680.13 832.08 681.48C833.19 683.25 834.78 684 834.81 684.03C834.78 684.06 834.09 684.75 833.49 685.47C833.07 685.98 832.56 686.85 832.53 686.88C832.47 686.85 831.51 686.16 830.55 685.11C829.95 684.45 829.26 683.46 829.26 683.46C829.23 683.49 828.66 684.75 827.34 686.07C826.2 687.21 824.73 687.96 824.7 687.99C824.67 687.96 824.1 687.24 823.26 686.49C822.6 685.89 821.79 685.59 821.73 685.56C821.79 685.53 824.19 684.69 825.75 682.47C827.97 679.32 827.52 676.89 827.52 676.89ZM844.8 675.36L840.96 675.42C840.96 675.39 841.02 673.53 841.02 668.55C841.02 665.79 840.99 661.56 840.99 661.5C840.99 661.5 843.9 661.62 844.47 661.65C845.31 661.71 844.74 662.67 844.74 663.15C844.74 663.18 844.74 666 844.74 668.88C844.74 671.61 844.8 675.36 844.8 675.36ZM839.34 676.71C839.37 676.65 841.65 676.77 842.58 676.83C843.81 676.92 842.67 677.58 842.82 678.09C842.82 678.12 842.88 679.92 843.87 681.81C844.89 683.76 846.87 684.75 846.9 684.78C846.87 684.81 846.3 685.32 845.73 686.04C845.28 686.61 844.83 687.57 844.83 687.6C844.83 687.6 843.66 687.18 842.46 685.74C841.53 684.63 841.05 683.37 841.05 683.37C841.05 683.4 840.6 684.51 839.22 686.01C838.26 687.06 837.09 687.72 837.06 687.75C837.03 687.72 836.64 687.03 835.89 686.31C835.41 685.86 834.66 685.5 834.6 685.47C834.66 685.44 836.64 684.33 837.87 682.17C839.43 679.47 839.34 676.71 839.34 676.71ZM828.69 663.24C831.63 663.24 836.04 664.65 836.04 669.21C836.04 673.41 832.14 674.76 828.69 674.79C825.24 674.82 821.25 673.44 821.25 669.21C821.25 664.65 825.69 663.24 828.69 663.24ZM828.69 666.36C827.4 666.33 825 666.96 825.03 669.21C825.06 671.46 827.58 671.85 828.69 671.85C829.86 671.85 832.29 671.49 832.29 669.21C832.29 666.96 830.13 666.39 828.69 666.36ZM840.24 726.32C840.24 726.32 840.27 718.04 840.3 712.97C840.33 705.53 840.33 699.62 840.33 699.53C840.36 699.5 842.94 699.56 843.84 699.62C844.98 699.68 844.17 700.46 844.17 701.03L844.11 711.44L847.47 711.38V715.16L844.14 715.13L844.2 726.23L840.24 726.32ZM822.72 703.37H836.16V706.76L826.68 706.73V716.99C826.71 716.99 830.07 716.93 832.68 716.66C835.53 716.36 838.41 716 838.41 716L838.86 719.36C838.86 719.36 833.52 719.99 830.1 720.26C827.22 720.5 822.75 720.71 822.72 720.71V703.37ZM847.23 757.75V761.65C847.17 761.65 840.69 761.56 832.86 761.56C826.65 761.56 820.8 761.65 820.77 761.65V757.72C820.8 757.72 823.98 757.75 826.02 757.78C828.33 757.81 830.43 757.9 830.46 757.9C830.46 757.9 830.49 755.89 830.46 754.48C830.43 753.25 830.34 748.57 830.34 748.54C830.37 748.51 833.25 748.57 834.18 748.63C835.2 748.69 834.51 749.41 834.51 750.1C834.51 750.13 834.57 752.38 834.48 754.36C834.39 756.19 834.48 758.02 834.48 757.96C834.51 757.96 839.88 757.9 841.23 757.87C843.42 757.81 847.17 757.75 847.23 757.75ZM823.41 740.29C823.44 740.29 829.29 740.44 833.04 740.44C837.78 740.44 845.13 740.29 845.16 740.29C845.16 740.38 844.77 745.09 844.44 748.12C844.11 751.24 843.63 754.84 843.6 754.96C843.6 754.96 842.13 754.78 841.17 754.72C840.42 754.66 839.34 754.6 839.25 754.6C839.25 754.57 839.91 751.54 840.12 749.56C840.36 747.28 840.69 744.25 840.69 744.19C840.6 744.19 834.99 744.1 831.33 744.28C828.3 744.43 823.41 744.37 823.41 744.37V740.29Z" fill="black"/>
<path d="M915.24 264.26C915.24 264.26 915.3 260.81 915.3 256.67C915.3 252.74 915.27 249.53 915.27 249.5C915.3 249.47 918.51 249.59 919.08 249.59C919.77 249.59 919.29 250.67 919.29 251.06L919.23 256.43L922.59 256.4V260.12L919.23 260.09L919.29 264.23L915.24 264.26ZM907.56 251.42C907.56 251.42 909.78 251.42 911.19 251.54C911.91 251.6 911.37 252.32 911.37 252.77C911.37 252.83 911.43 255.62 911.4 257.66C911.37 260.12 911.4 263.33 911.4 263.33H897.78C897.78 263.33 897.81 259.73 897.81 257.3C897.81 254.96 897.84 251.39 897.84 251.39C897.84 251.39 900.03 251.51 901.44 251.51C902.22 251.51 901.71 252.29 901.71 252.56L901.68 254.3H907.62L907.56 251.42ZM907.62 257.39H901.65V260.15L907.62 260.18V257.39ZM899.94 265.19C899.94 265.19 903.09 265.4 903.6 265.37C904.62 265.34 903.93 266.18 903.93 266.33L903.9 267.47C903.9 267.47 907.02 267.5 909.69 267.5C911.88 267.5 915.27 267.47 915.3 267.47L915.27 265.13C915.3 265.1 918.54 265.28 918.96 265.28C919.89 265.28 919.26 266.15 919.26 266.45V276.11L915.24 276.17L915.27 275.57C915.24 275.57 911.85 275.57 909.66 275.57C907.44 275.57 903.93 275.6 903.93 275.6L903.96 276.2L899.91 276.26L899.94 265.19ZM903.9 270.5V272.6C903.9 272.6 906.69 272.63 909.51 272.63C912.45 272.63 915.3 272.6 915.33 272.6V270.56C915.3 270.56 911.79 270.5 909.51 270.5C907.32 270.5 903.84 270.5 903.9 270.5ZM909.06 287.35C910.59 287.35 919.47 287.35 919.47 292.21C919.47 297.01 910.32 297.01 909.06 297.01C907.65 297.01 898.62 297.01 898.62 292.21C898.62 287.32 907.65 287.35 909.06 287.35ZM909.06 290.2C908.25 290.2 902.46 290.2 902.46 292.21C902.46 294.22 908.25 294.04 909.06 294.01C909.84 294.01 915.48 294.22 915.48 292.21C915.48 290.2 909.84 290.2 909.06 290.2ZM918.96 302.59V309.79C918.96 309.79 913.47 309.85 909.24 309.82C905.55 309.79 903.03 309.82 903.03 309.82V311.8C903.06 311.8 905.1 311.74 909.48 311.77C914.46 311.8 919.2 311.74 919.26 311.74V314.53C919.23 314.53 914.82 314.56 909.18 314.53C903.75 314.5 898.98 314.56 898.98 314.56L899.01 307.24C899.04 307.24 903.84 307.24 907.2 307.24C910.29 307.24 915.09 307.24 915.15 307.24V305.41C915.15 305.41 912.72 305.38 908.01 305.38C902.61 305.38 899.04 305.44 898.98 305.44V302.59C899.04 302.59 904.44 302.62 907.95 302.62C912.24 302.62 918.96 302.59 918.96 302.59ZM895.86 301.3V298.3C895.92 298.3 903.9 298.36 908.97 298.36C914.13 298.36 922.23 298.3 922.23 298.3V301.3C922.17 301.3 914.19 301.21 909.06 301.24C903.9 301.27 895.86 301.3 895.86 301.3ZM899.1 383.78V380.45C899.13 380.45 904.11 380.48 908.67 380.48C913.05 380.48 919.86 380.45 919.92 380.45L919.95 390.38L915.84 390.44L915.87 383.75C915.81 383.75 911.64 383.72 908.7 383.72C903.81 383.72 899.13 383.78 899.1 383.78ZM897.24 365.39H910.26V377.33H897.24V365.39ZM906.3 368.87H901.17V374.03H906.3V368.87ZM920.04 378.83L915.96 378.89L916.05 373.82L911.37 373.85V370.28L916.05 370.34L915.99 363.5C915.99 363.5 919.17 363.65 919.62 363.65C920.52 363.65 919.98 364.7 919.98 364.97C919.98 365 919.98 369.2 919.98 372.02C919.98 374.69 920.04 378.83 920.04 378.83ZM903 404.38C906.96 404.38 910.2 407.62 910.2 414.13C910.2 420.55 907.05 423.55 903 423.55C899.7 423.55 895.98 420.58 895.98 414.13C895.98 407.59 899.25 404.38 903 404.38ZM903.03 408.04C900.9 408.04 899.85 410.95 899.85 414.13C899.85 417.43 901.02 420.04 903 420.07C905.19 420.1 906.18 417.43 906.21 414.13C906.24 410.92 905.25 408.04 903.03 408.04ZM919.98 428.38L915.99 428.44L916.08 416.14L911.25 416.17V412.57L916.08 412.66L916.05 401.5C916.05 401.5 919.35 401.59 919.8 401.65C920.61 401.77 919.95 402.82 919.95 403.24C919.95 403.24 919.92 408.43 919.92 414.22C919.92 419.74 919.98 428.35 919.98 428.38ZM903.78 442.2C908.01 442.2 910.89 446.52 910.86 451.98C910.83 457.44 908.34 461.67 903.84 461.67C899.73 461.67 896.73 457.32 896.73 452.01C896.73 446.25 899.94 442.2 903.78 442.2ZM903.78 445.71C901.32 445.71 900.36 449.19 900.36 451.95C900.36 454.74 901.44 458.25 903.78 458.25C906.36 458.25 907.2 454.74 907.2 451.95C907.2 449.19 906.18 445.71 903.78 445.71ZM919.26 466.41L915.24 466.44C915.24 466.44 915.3 459.42 915.3 452.85C915.3 447.48 915.27 439.53 915.27 439.5C915.3 439.47 918.39 439.56 918.96 439.59C920.04 439.62 919.26 440.94 919.26 441.15L919.23 447.51L922.83 447.48V451.23L919.23 451.17V455.25L922.83 455.19V459.09L919.23 459.03L919.26 466.41ZM897.18 481.28C897.3 481.28 901.98 481.34 905.04 481.34C908.1 481.34 912.84 481.28 912.87 481.28V484.79L906.96 484.76C906.96 484.76 906.27 487.25 907.98 490.61C910.02 494.63 913.59 496.16 913.65 496.19C913.62 496.22 912.75 496.85 912.21 497.51C911.67 498.17 911.25 498.98 911.22 499.01C911.19 498.98 909.33 498.14 907.44 495.95C905.52 493.73 904.98 492.11 904.98 492.08C904.98 492.11 904.14 494.15 902.28 496.25C900.78 497.96 898.2 499.49 898.17 499.52C898.11 499.43 897.42 498.44 896.73 497.81C896.19 497.33 895.17 496.76 895.14 496.73C895.2 496.7 899.28 494.69 901.35 491.06C903.3 487.64 903.27 484.82 903.27 484.76L897.18 484.79V481.28ZM916.11 504.44C916.11 504.44 916.2 495.77 916.17 491.27C916.14 488.21 916.17 477.59 916.17 477.5C916.2 477.47 918.42 477.59 919.47 477.68C920.73 477.77 919.95 478.58 919.95 479.51C919.98 479.63 919.95 488.63 919.95 491.81C919.95 494.09 920.01 504.35 920.01 504.35L916.11 504.44Z" fill="black"/>
<rect x="977" y="5" width="45" height="585" fill="url(#paint5_linear_282_389)"/>
<path d="M988.6 312.34C988.63 312.31 990.94 312.4 992.14 312.46C993.7 312.52 992.8 313.48 992.8 314.2L992.77 324.22C992.8 324.22 996.88 324.07 999.13 323.83C1002.37 323.47 1004.83 323.17 1004.86 323.17L1005.13 326.59C1005.01 326.62 1002.28 326.98 996.61 327.55C992.8 327.94 988.63 328 988.6 328V312.34ZM1006.3 335.38C1006.3 335.38 1006.39 326.47 1006.48 322C1006.57 316.84 1006.36 308.59 1006.36 308.5C1006.39 308.47 1009.06 308.53 1009.96 308.59C1011.16 308.65 1010.38 309.13 1010.38 310.06L1010.29 320.26L1013.74 320.17V324.01L1010.29 323.95L1010.47 335.26L1006.3 335.38ZM1012.99 359.1V362.76C1012.93 362.76 1003.54 362.7 999.58 362.7C995.86 362.7 987.01 362.76 986.98 362.76V359.1C987.01 359.1 992.98 359.16 999.67 359.16C1006.15 359.16 1012.96 359.1 1012.99 359.1ZM993.85 347.58C995.11 347.67 994.15 348.54 994.15 349.29V352.74C994.15 352.74 998.2 352.71 1000.81 352.74C1005.79 352.77 1010.26 352.71 1010.29 352.71V356.16C1010.26 356.16 1002.52 356.1 1000.33 356.1C997.06 356.07 990.1 356.13 990.07 356.13V347.49C990.1 347.43 993.01 347.52 993.85 347.58ZM993.7 364.32C994.93 364.47 994 365.4 994 365.94V369.03C994 369.03 997.87 369 1000.33 369.03C1004.62 369.06 1010.53 369 1010.56 369V372.54C1010.53 372.54 1003.51 372.51 1000.9 372.51C997.63 372.51 989.98 372.54 989.95 372.54V364.23C989.98 364.17 992.86 364.23 993.7 364.32ZM1006.24 437.26C1006.24 437.26 1006.3 433.81 1006.3 429.67C1006.3 425.74 1006.27 422.53 1006.27 422.5C1006.3 422.47 1009.51 422.59 1010.08 422.59C1010.77 422.59 1010.29 423.67 1010.29 424.06L1010.23 429.43L1013.59 429.4V433.12L1010.23 433.09L1010.29 437.23L1006.24 437.26ZM998.56 424.42C998.56 424.42 1000.78 424.42 1002.19 424.54C1002.91 424.6 1002.37 425.32 1002.37 425.77C1002.37 425.83 1002.43 428.62 1002.4 430.66C1002.37 433.12 1002.4 436.33 1002.4 436.33H988.78C988.78 436.33 988.81 432.73 988.81 430.3C988.81 427.96 988.84 424.39 988.84 424.39C988.84 424.39 991.03 424.51 992.44 424.51C993.22 424.51 992.71 425.29 992.71 425.56L992.68 427.3H998.62L998.56 424.42ZM998.62 430.39H992.65V433.15L998.62 433.18V430.39ZM990.94 438.19C990.94 438.19 994.09 438.4 994.6 438.37C995.62 438.34 994.93 439.18 994.93 439.33L994.9 440.47C994.9 440.47 998.02 440.5 1000.69 440.5C1002.88 440.5 1006.27 440.47 1006.3 440.47L1006.27 438.13C1006.3 438.1 1009.54 438.28 1009.96 438.28C1010.89 438.28 1010.26 439.15 1010.26 439.45V449.11L1006.24 449.17L1006.27 448.57C1006.24 448.57 1002.85 448.57 1000.66 448.57C998.44 448.57 994.93 448.6 994.93 448.6L994.96 449.2L990.91 449.26L990.94 438.19ZM994.9 443.5V445.6C994.9 445.6 997.69 445.63 1000.51 445.63C1003.45 445.63 1006.3 445.6 1006.33 445.6V443.56C1006.3 443.56 1002.79 443.5 1000.51 443.5C998.32 443.5 994.84 443.5 994.9 443.5ZM1000.06 460.35C1001.59 460.35 1010.47 460.35 1010.47 465.21C1010.47 470.01 1001.32 470.01 1000.06 470.01C998.65 470.01 989.62 470.01 989.62 465.21C989.62 460.32 998.65 460.35 1000.06 460.35ZM1000.06 463.2C999.25 463.2 993.46 463.2 993.46 465.21C993.46 467.22 999.25 467.04 1000.06 467.01C1000.84 467.01 1006.48 467.22 1006.48 465.21C1006.48 463.2 1000.84 463.2 1000.06 463.2ZM1009.96 475.59V482.79C1009.96 482.79 1004.47 482.85 1000.24 482.82C996.55 482.79 994.03 482.82 994.03 482.82V484.8C994.06 484.8 996.1 484.74 1000.48 484.77C1005.46 484.8 1010.2 484.74 1010.26 484.74V487.53C1010.23 487.53 1005.82 487.56 1000.18 487.53C994.75 487.5 989.98 487.56 989.98 487.56L990.01 480.24C990.04 480.24 994.84 480.24 998.2 480.24C1001.29 480.24 1006.09 480.24 1006.15 480.24V478.41C1006.15 478.41 1003.72 478.38 999.01 478.38C993.61 478.38 990.04 478.44 989.98 478.44V475.59C990.04 475.59 995.44 475.62 998.95 475.62C1003.24 475.62 1009.96 475.59 1009.96 475.59ZM986.86 474.3V471.3C986.92 471.3 994.9 471.36 999.97 471.36C1005.13 471.36 1013.23 471.3 1013.23 471.3V474.3C1013.17 474.3 1005.19 474.21 1000.06 474.24C994.9 474.27 986.86 474.3 986.86 474.3ZM990.1 556.78V553.45C990.13 553.45 995.11 553.48 999.67 553.48C1004.05 553.48 1010.86 553.45 1010.92 553.45L1010.95 563.38L1006.84 563.44L1006.87 556.75C1006.81 556.75 1002.64 556.72 999.7 556.72C994.81 556.72 990.13 556.78 990.1 556.78ZM988.24 538.39H1001.26V550.33H988.24V538.39ZM997.3 541.87H992.17V547.03H997.3V541.87ZM1011.04 551.83L1006.96 551.89L1007.05 546.82L1002.37 546.85V543.28L1007.05 543.34L1006.99 536.5C1006.99 536.5 1010.17 536.65 1010.62 536.65C1011.52 536.65 1010.98 537.7 1010.98 537.97C1010.98 538 1010.98 542.2 1010.98 545.02C1010.98 547.69 1011.04 551.83 1011.04 551.83ZM994.87 575.73C997.81 575.73 1001.71 577.44 1001.71 582.03C1001.71 586.32 998.35 588.54 994.9 588.57C991.45 588.6 987.85 586.35 987.85 582.03C987.85 577.41 991.69 575.73 994.87 575.73ZM994.9 579.21C993.49 579.21 991.66 580.05 991.69 582.03C991.72 584.4 993.49 585.06 994.87 585.06C996.31 585.06 997.96 584.34 997.96 582C997.96 580.11 996.34 579.21 994.9 579.21ZM1010.95 588.66L1006.87 588.72L1006.96 584.13L1002.61 584.16V580.77L1006.96 580.83L1006.9 574.5C1006.9 574.5 1010.08 574.65 1010.53 574.65C1011.43 574.65 1010.89 575.7 1010.89 575.97C1010.89 576 1010.89 580.2 1010.89 583.02C1010.89 585.21 1010.95 588.66 1010.95 588.66ZM994.24 589.89C994.27 589.86 996.85 590.01 997.45 590.1C998.59 590.25 997.75 591.09 997.9 591.57C997.9 591.6 997.93 592.86 998.68 594.27C999.46 595.77 1001.08 597.06 1001.11 597.09C1001.08 597.12 1000.3 597.69 999.76 598.41C999.34 598.95 998.71 599.91 998.68 599.94C998.62 599.91 997.87 599.34 997 598.29C996.43 597.6 995.95 596.28 995.95 596.28C995.92 596.31 995.26 597.54 993.88 598.92C992.74 600.06 991.06 600.81 991.03 600.81C991 600.78 990.49 600.18 989.68 599.4C989.05 598.8 988.3 598.32 988.24 598.29C988.3 598.26 990.37 597.78 992.11 595.53C994.27 592.74 994.24 589.89 994.24 589.89ZM1005.43 589.83C1005.46 589.8 1007.71 589.95 1008.64 590.01C1009.81 590.1 1009.03 590.76 1009.12 591.27C1009.12 591.3 1008.76 592.89 1009.72 594.81C1010.8 596.94 1012.6 597.99 1012.63 598.02C1012.6 598.05 1012.03 598.53 1011.43 599.25C1010.98 599.79 1010.47 600.75 1010.47 600.78C1010.47 600.78 1009.54 600.45 1008.34 599.07C1007.56 598.17 1007.05 596.91 1007.05 596.91C1007.02 596.94 1006.51 597.99 1005.4 599.16C1004.44 600.18 1003.33 600.93 1003.3 600.96C1003.27 600.93 1002.73 600.3 1001.92 599.52C1001.44 599.07 1000.48 598.59 1000.42 598.56C1000.48 598.53 1002.76 597.33 1004.23 594.75C1005.64 592.26 1005.43 589.83 1005.43 589.83ZM1006.24 639.32C1006.24 639.32 1006.27 631.04 1006.3 625.97C1006.33 618.53 1006.33 612.62 1006.33 612.53C1006.36 612.5 1008.94 612.56 1009.84 612.62C1010.98 612.68 1010.17 613.46 1010.17 614.03L1010.11 624.44L1013.47 624.38V628.16L1010.14 628.13L1010.2 639.23L1006.24 639.32ZM988.72 616.37H1002.16V619.76L992.68 619.73V629.99C992.71 629.99 996.07 629.93 998.68 629.66C1001.53 629.36 1004.41 629 1004.41 629L1004.86 632.36C1004.86 632.36 999.52 632.99 996.1 633.26C993.22 633.5 988.75 633.71 988.72 633.71V616.37Z" fill="black"/>
<defs>
<linearGradient id="paint0_linear_282_389" x1="656.5" y1="0" x2="656.5" y2="545" gradientUnits="userSpaceOnUse">
<stop offset="0.955" stop-color="#F7FF99"/>
<stop offset="1" stop-color="#F4FF72"/>
</linearGradient>
<linearGradient id="paint1_linear_282_389" x1="741.5" y1="0" x2="741.5" y2="552" gradientUnits="userSpaceOnUse">
<stop offset="0.955" stop-color="#F7FF99"/>
<stop offset="1" stop-color="#F4FF72"/>
</linearGradient>
<linearGradient id="paint2_linear_282_389" x1="832.5" y1="0" x2="832.5" y2="563" gradientUnits="userSpaceOnUse">
<stop offset="0.955" stop-color="#F7FF99"/>
<stop offset="1" stop-color="#F4FF72"/>
</linearGradient>
<linearGradient id="paint3_linear_282_389" x1="264.5" y1="0" x2="264.5" y2="576" gradientUnits="userSpaceOnUse">
<stop offset="0.955" stop-color="#F7FF99"/>
<stop offset="1" stop-color="#F4FF72"/>
</linearGradient>
<linearGradient id="paint4_linear_282_389" x1="481.5" y1="0" x2="481.5" y2="576" gradientUnits="userSpaceOnUse">
<stop offset="0.955" stop-color="#F7FF99"/>
<stop offset="1" stop-color="#F4FF72"/>
</linearGradient>
<linearGradient id="paint5_linear_282_389" x1="999.5" y1="5" x2="999.5" y2="590" gradientUnits="userSpaceOnUse">
<stop offset="0.955" stop-color="#F7FF99"/>
<stop offset="1" stop-color="#F4FF72"/>
</linearGradient>
</defs>
</svg>
